<svg width="31" height="41" viewBox="0 0 31 41" fill="none" xmlns="http://www.w3.org/2000/svg">
<path d="M27.9148 14.8343C27.2408 14.8324 26.5844 15.0487 26.0435 15.4509C26.0431 14.653 25.7339 13.8863 25.1808 13.3113C24.6278 12.7362 23.8736 12.3971 23.0764 12.3659C22.2792 12.3342 21.5004 12.6126 20.9036 13.1421C20.6852 12.5516 20.2914 12.0422 19.7751 11.6823C19.2585 11.3223 18.6444 11.1292 18.0149 11.1285C17.3483 11.1311 16.6996 11.3473 16.1646 11.7452V6.80563C16.1995 5.96504 15.8899 5.14651 15.3071 4.53944C14.7246 3.93235 13.9197 3.58887 13.0784 3.58887C12.2367 3.58887 11.4318 3.93231 10.8493 4.53944C10.2668 5.14657 9.95682 5.96511 9.99175 6.80563V20.6114C9.67773 19.9642 9.19051 19.417 8.58416 19.0299C7.68915 18.4415 6.59519 18.2363 5.54794 18.4606L4.05609 18.782V18.7824C3.72626 18.8559 3.51409 19.1777 3.57623 19.5097L6.39104 32.6886C6.67491 34.9206 7.76296 36.9724 9.45192 38.4595C11.1405 39.9462 13.3136 40.7658 15.5637 40.7647H21.7365C24.1936 40.7658 26.5502 39.7906 28.2877 38.0531C30.0247 36.316 31.0003 33.9594 30.9989 31.5023V17.9177C30.9974 17.1003 30.672 16.3167 30.0939 15.7387C29.5159 15.1607 28.7323 14.8356 27.9149 14.8341L27.9148 14.8343ZM29.7651 31.5083C29.768 33.6378 28.923 35.6811 27.4165 37.1865C25.91 38.6919 23.8662 39.5355 21.7364 39.5314H15.5637C13.6082 39.534 11.7192 38.8225 10.2516 37.5303C8.78371 36.2385 7.83832 34.4548 7.5931 32.5151L4.92052 19.8634L5.82179 19.6788V19.6792C6.54545 19.5189 7.3029 19.6564 7.92362 20.0609C8.5447 20.4658 8.97643 21.1033 9.12168 21.83L9.45372 23.4115L10.0182 26.664C10.0715 26.9839 10.3583 27.2119 10.6822 27.1909C10.9977 27.1585 11.2375 26.8916 11.2357 26.5742V6.80598C11.2831 6.17977 11.6446 5.62045 12.1961 5.32045C12.7477 5.02039 13.4136 5.02039 13.9652 5.32045C14.5167 5.6205 14.8786 6.17979 14.9256 6.80598V21.6246C14.9256 21.9652 15.2018 22.2413 15.5427 22.2413C15.7067 22.2428 15.8644 22.1781 15.9802 22.0622C16.0961 21.9464 16.1608 21.7887 16.1593 21.6247V14.2182C16.2067 13.5919 16.5682 13.0326 17.1198 12.7322C17.6713 12.4322 18.3373 12.4322 18.8888 12.7322C19.4404 13.0327 19.8019 13.5919 19.8493 14.2182V21.6247C19.8493 21.9652 20.1254 22.2413 20.4663 22.2413C20.6303 22.2428 20.7877 22.1781 20.9039 22.0622C21.0197 21.9464 21.0844 21.7887 21.083 21.6247V15.4515C21.1304 14.8253 21.4919 14.266 22.0434 13.966C22.595 13.6659 23.261 13.6659 23.8125 13.966C24.364 14.266 24.7255 14.8253 24.7729 15.4515V21.6247C24.7729 21.9652 25.0491 22.2413 25.3896 22.2413C25.5599 22.2531 25.7275 22.1932 25.8514 22.0759C25.9757 21.9589 26.0452 21.7953 26.0434 21.6247V17.9343C26.0044 17.421 26.1817 16.9146 26.5317 16.537C26.8818 16.1593 27.3734 15.9446 27.8886 15.9446C28.4034 15.9446 28.895 16.1593 29.2451 16.537C29.5955 16.9146 29.7724 17.421 29.7334 17.9343L29.7651 31.5083Z" fill="#92938F"/>
<path d="M25.7546 3.52126L23.2821 5.9938V5.99344C23.1688 6.1111 23.0129 6.17766 22.8496 6.17802C22.6834 6.17766 22.5242 6.11147 22.4069 5.99344C22.1712 5.75368 22.1712 5.36906 22.4069 5.12894L23.8247 3.71109H18.4425C18.5708 3.93502 18.687 4.16521 18.7907 4.40165C18.9488 4.77525 19.0687 5.16355 19.1493 5.56139C19.2335 5.96697 19.2739 6.38065 19.2702 6.79474C19.2746 6.95874 19.2129 7.11759 19.0989 7.23563C18.9849 7.35366 18.8282 7.42096 18.6642 7.42206C18.3234 7.42206 18.0472 7.14591 18.0472 6.8054C18.0513 6.4741 18.0178 6.14352 17.9472 5.81953C17.8843 5.50146 17.7887 5.19074 17.6626 4.89179C17.4177 4.30088 17.0596 3.76368 16.6084 3.31023C16.3833 3.08188 16.134 2.87854 15.8649 2.70424C15.6038 2.52002 15.3225 2.36632 15.0269 2.24534C14.7261 2.10524 14.4091 2.00265 14.0833 1.93977C13.431 1.80813 12.7589 1.80813 12.1065 1.93977C11.7862 2.00044 11.4748 2.09972 11.1784 2.23504C10.8842 2.35859 10.6033 2.51229 10.3404 2.69358C10.0786 2.87155 9.83515 3.07453 9.61305 3.29993C9.3836 3.52607 9.18025 3.77686 9.0067 4.04823C8.82284 4.30967 8.66914 4.59097 8.54815 4.88661C8.42387 5.18703 8.32495 5.49738 8.25288 5.81435C8.18853 6.13904 8.15507 6.46925 8.15287 6.80023C8.15397 6.96423 8.08962 7.12198 7.97379 7.2378C7.85759 7.35363 7.69984 7.41835 7.53585 7.41687C7.19535 7.41687 6.91919 7.14072 6.91919 6.80022C6.93096 6.38176 6.9806 5.96551 7.06665 5.55585C7.15232 5.16203 7.27588 4.77704 7.43583 4.40675C7.53438 4.1681 7.65057 3.93755 7.78369 3.71619H2.10107L3.51892 5.13404V5.13441C3.69579 5.31018 3.74948 5.57493 3.65497 5.80585C3.56047 6.03641 3.33617 6.18754 3.08685 6.18864C2.92065 6.18828 2.76143 6.12172 2.64376 6.00405L0.176778 3.52125C-0.0589259 3.28114 -0.0589259 2.89651 0.176778 2.65676L2.64932 0.184222C2.76441 0.0665536 2.92216 0 3.08689 0C3.25163 0 3.40938 0.0665564 3.52447 0.184222C3.64287 0.296741 3.71017 0.453023 3.71017 0.616657C3.71017 0.779924 3.64287 0.936197 3.52447 1.04872L2.10106 2.46695H8.69565L8.73279 2.42981C9.01078 2.14887 9.31635 1.89625 9.64472 1.676C9.97529 1.45023 10.3287 1.25938 10.6989 1.10678C11.0729 0.946822 11.4612 0.82327 11.8587 0.737589C12.2643 0.653382 12.6779 0.612569 13.092 0.616607C13.5116 0.613298 13.9304 0.653746 14.3415 0.737589C14.7386 0.825105 15.1265 0.948658 15.5012 1.10678C15.8719 1.25864 16.2252 1.44948 16.5554 1.676C16.8827 1.90582 17.1831 2.17094 17.4515 2.46694L17.4883 2.50372H23.8141L22.4068 1.06449C22.1711 0.824741 22.1711 0.440117 22.4068 0.199998C22.5219 0.0823301 22.6797 0.0157772 22.8444 0.0157772C23.0092 0.0157772 23.1669 0.0823329 23.282 0.199998L25.7545 2.67254C25.8681 2.78432 25.9321 2.93729 25.9321 3.09688C25.9321 3.25646 25.8682 3.40907 25.7545 3.52122L25.7546 3.52126Z" fill="#92938F"/>
</svg>
