<svg width="21" height="17" viewBox="0 0 21 17" fill="none" xmlns="http://www.w3.org/2000/svg">
<path fill-rule="evenodd" clip-rule="evenodd" d="M17.5 0.625H3.5C2.05455 0.625 0.88375 1.80393 0.88375 3.25L0.875 13.7493C0.875 15.1957 2.05425 16.375 3.5 16.375H17.5C18.9457 16.375 20.125 15.1957 20.125 13.75V3.25C20.125 1.80425 18.9457 0.625 17.5 0.625ZM4.79868 5.87513C4.38476 5.62574 4.25139 5.08801 4.50078 4.67409C4.75018 4.26017 5.28791 4.1268 5.70183 4.37619L10.4743 7.25176L15.454 4.25139C15.8686 4.00159 16.4072 4.13518 16.657 4.54976C16.9062 4.96341 16.7738 5.50072 16.361 5.75128L10.509 9.303L10.5034 9.31235L4.79868 5.87513Z" fill="#0E9E2F"/>
</svg>
