<svg width="226" height="40" viewBox="0 0 226 40" fill="none" xmlns="http://www.w3.org/2000/svg">
<g clip-path="url(#clip0_21_6505)">
<path d="M30.0723 6.76115L49.2264 11.6366V6.70727L30.0723 0.0136719V6.76115Z" fill="#A28800"/>
<path d="M30.0723 16.0136L49.2264 17.7375V12.7947L30.0723 8.94287V16.0136Z" fill="#A28800"/>
<path d="M18.0273 23.9598L49.2668 23.9328V18.9901L18.0273 17.4951V23.9598Z" fill="#A28800"/>
<path d="M18.0544 31.9866L49.2268 30.2357V25.293L18.041 25.6835L18.0544 31.9866Z" fill="#A28800"/>
<path d="M18.0815 39.9999L49.2405 36.6464V31.7036L18.0547 33.6834L18.0815 39.9999Z" fill="#A28800"/>
<path d="M29.4287 16.0269C24.2342 15.3292 18.9763 15.2433 13.762 15.771C4.02398 16.6195 0 18.1144 0 18.1144V12.8619C4.48242 11.2549 9.13004 10.1571 13.8559 9.58916C19.0165 8.89907 24.2294 8.68718 29.4287 8.95617V16.0269Z" fill="#572700"/>
<path d="M29.4153 6.73401C24.1758 6.53486 18.93 6.88241 13.762 7.77104C9.0545 8.48046 4.43927 9.70899 0 11.4343L0 6.50505C4.53632 4.73817 9.16122 3.20972 13.8559 1.92593C18.9545 0.702694 24.1735 0.056692 29.4153 0V6.73401Z" fill="#572700"/>
<path d="M17.4372 33.6702C10.0599 32.3234 0 31.623 0 31.623V36.5523L17.4372 39.9463V33.6702Z" fill="#572700"/>
<path d="M17.4372 25.6836C11.65 24.9444 5.79483 24.9128 0 25.5893L0 30.5725C5.80468 30.6298 11.5989 31.0798 17.3433 31.9193H17.4372V25.6836Z" fill="#572700"/>
<path d="M17.4372 17.5084C9.92581 17.1313 0 19.5017 0 19.5017V24.431C5.76385 23.8775 11.5597 23.738 17.3433 24.0135H17.4372V17.5084Z" fill="#572700"/>
<path d="M59.6223 9.96652V24.31H55.7861V7.69043H64.0621V9.96652H59.6223Z" fill="white"/>
<path d="M71.2513 17.7509C70.7491 17.7506 70.2474 17.7191 69.749 17.6566V24.3098H65.8994V7.91922C67.5687 7.71544 69.2479 7.60304 70.9294 7.58252C75.5972 7.58252 77.1263 9.83168 77.1263 12.3502C77.1263 15.6229 75.1814 17.7509 71.2513 17.7509ZM70.7282 9.83168C70.3943 9.82895 70.0612 9.8651 69.7356 9.93942V15.6229C70.0628 15.6852 70.3951 15.7168 70.7282 15.7172C73.0353 15.7172 73.4108 14.1549 73.4108 12.5657C73.4663 12.1974 73.4356 11.8212 73.321 11.4669C73.2065 11.1126 73.0113 10.7899 72.7509 10.5246C72.4906 10.2593 72.1722 10.0585 71.8211 9.9382C71.47 9.81792 71.0958 9.78145 70.7282 9.83168Z" fill="white"/>
<path d="M79.2451 24.31V7.69043H88.0308V9.96652H83.0679V14.4648H87.0919V16.6467H83.0679V22.0339H88.2186V24.2965L79.2451 24.31Z" fill="white"/>
<path d="M102.88 24.31V12.916L98.4402 22.9766H97.4744L93.1151 12.8891V24.31H90.2715V7.69043H94.7783L98.8023 16.5928L102.706 7.69043H106.73V24.31H102.88Z" fill="white"/>
<path d="M117.004 24.3098V17.293H116.695C115.958 17.293 115.193 17.4276 114.348 19.8384L112.806 24.3098H108.647L110.472 20.3502C111.625 17.8182 112.229 17.2391 113.154 16.7542V16.6196C112.146 16.5106 111.219 16.0161 110.565 15.2386C109.91 14.4612 109.579 13.4605 109.64 12.4445C109.64 9.52191 111.558 7.58252 115.824 7.58252C116.816 7.58252 120.786 7.69026 120.786 7.69026V24.3098H117.004ZM117.004 9.96636C116.632 9.87152 116.248 9.8307 115.864 9.84514C115.513 9.85128 115.167 9.92968 114.848 10.0755C114.529 10.2213 114.243 10.4314 114.007 10.6927C113.772 10.9541 113.593 11.2612 113.481 11.595C113.369 11.9287 113.326 12.282 113.356 12.633C113.322 12.9658 113.357 13.3019 113.458 13.6206C113.559 13.9393 113.724 14.2339 113.943 14.4862C114.161 14.7385 114.429 14.9432 114.73 15.0878C115.03 15.2323 115.357 15.3136 115.689 15.3266H117.031L117.004 9.96636Z" fill="white"/>
<path d="M131.235 24.31V16.5524C130.181 17.4323 128.85 17.9094 127.479 17.8992C123.187 17.8992 123.455 14.2359 123.455 13.347V7.69043H127.292V12.512C127.292 14.2359 127.52 15.4076 129.035 15.4076C129.489 15.4405 129.941 15.3277 130.327 15.0856C130.713 14.8436 131.012 14.4847 131.181 14.0608V7.69043H135.018V24.31H131.235Z" fill="white"/>
<path d="M147.237 24.31V12.4985L141.872 24.31H137.969V7.69043H141.805V18.9766L147.17 7.69043H151.06V24.31H147.237Z" fill="white"/>
<path d="M162.38 24.31V16.916H157.686V24.31H153.85V7.69043H157.686V14.5591H162.38V7.69043H166.203V24.31H162.38Z" fill="white"/>
<path d="M179.362 11.744C179.032 11.1592 178.558 10.6697 177.985 10.3229C177.411 9.97603 176.759 9.78362 176.089 9.76425C174.748 9.76425 172.857 11.1784 172.857 16.0134C172.857 20.3905 174.52 21.8316 176.317 21.8316C177.56 21.8969 178.785 21.5202 179.778 20.7676L180.677 22.5319C179.952 23.2475 179.089 23.8056 178.141 24.1717C177.192 24.5378 176.179 24.704 175.164 24.6599C172.763 24.6599 168.927 22.7609 168.927 16.202C168.927 9.33327 173.286 7.48815 176.317 7.48815C177.196 7.4377 178.076 7.5762 178.897 7.8944C179.718 8.21259 180.462 8.70315 181.079 9.33327L179.362 11.744Z" fill="white"/>
<path d="M191.085 24.31L189.1 18.9228C188.402 17.0238 188.067 16.7409 187.275 16.7409H186.9V24.2696H183.077V7.69043H186.9V14.815H187.275C188.174 14.815 188.402 13.9531 189.1 12.31L190.065 9.99346C190.242 9.28748 190.666 8.66896 191.26 8.25102C191.853 7.83308 192.577 7.64365 193.298 7.71737H194.411V10.4514H194.063C193.097 10.4514 192.721 11.6096 192.145 13.2123C191.568 14.815 191.273 15.1382 190.441 15.4884V15.6231C191.179 15.852 191.782 16.3908 192.681 18.3167L195.364 24.2696L191.085 24.31Z" fill="white"/>
<path d="M206.323 24.31V12.4985L200.958 24.31H197.055V7.69043H200.891V18.9766L206.256 7.69043H210.133V24.31H206.323Z" fill="white"/>
<path d="M222.177 24.3096V12.4981L216.811 24.3096H212.908V7.69004H216.744V18.9762L222.11 7.69004H225.986V24.3096H222.177ZM219.588 7.69004C219.095 7.73674 218.599 7.68006 218.129 7.52361C217.659 7.36716 217.227 7.11436 216.86 6.78125C216.493 6.44815 216.199 6.04203 215.997 5.5887C215.794 5.13537 215.688 4.64473 215.685 4.14795H218.113C218.143 4.51825 218.312 4.86315 218.586 5.1131C218.86 5.36304 219.218 5.49943 219.588 5.49475C219.775 5.51363 219.964 5.49281 220.143 5.43363C220.321 5.37446 220.485 5.27825 220.624 5.15125C220.764 5.02426 220.875 4.86931 220.95 4.69647C221.026 4.52362 221.064 4.33674 221.063 4.14795H223.491C223.469 4.63866 223.35 5.12007 223.141 5.56435C222.933 6.00863 222.638 6.40696 222.275 6.73633C221.912 7.0657 221.488 7.31957 221.027 7.48327C220.565 7.64697 220.076 7.71724 219.588 7.69004Z" fill="white"/>
<path d="M60.6145 36.3638L60.5072 35.017H56.6978L56.5905 36.3638H55.8662V34.2763H56.3357C56.7994 33.725 57.0807 33.0425 57.1405 32.3234C57.2769 31.5585 57.3531 30.7839 57.3685 30.0069V29.2393H60.7084V34.2628H61.312V36.3638H60.6145ZM59.7695 29.98H58.1867V30.6669C58.1511 31.2736 58.0704 31.8769 57.9453 32.4716C57.8415 33.0931 57.6376 33.6936 57.3417 34.2494H59.8231L59.7695 29.98Z" fill="white"/>
<path d="M63.1898 32.0942C63.1898 33.8585 64.1288 34.3838 64.9872 34.3838C65.509 34.3781 66.014 34.198 66.4224 33.872L66.7041 34.4511C66.1222 34.916 65.3952 35.1593 64.6519 35.138C63.4313 35.138 62.1973 34.2087 62.1973 32.1616C62.1973 29.8451 63.7264 29.1582 64.6117 29.1582C66.1139 29.1582 66.798 30.1279 66.798 31.8518V32.0942H63.1898ZM65.8725 31.1784C65.8892 31.0098 65.8709 30.8396 65.8188 30.6784C65.7667 30.5173 65.6819 30.3688 65.5697 30.2422C65.4575 30.1157 65.3204 30.0138 65.1671 29.9432C65.0137 29.8725 64.8474 29.8345 64.6787 29.8316C64.3568 29.8316 63.4984 29.9798 63.3374 31.4074H65.9127L65.8725 31.1784Z" fill="white"/>
<path d="M70.1107 35.2187C69.8604 35.2444 69.6076 35.2089 69.374 35.1151C69.1404 35.0212 68.9329 34.8719 68.7694 34.6799V37.7102H67.8305V30.6799C67.8272 30.2299 67.8004 29.7803 67.75 29.3331L68.6621 29.2389L68.7694 30.1412C68.9518 29.843 69.2087 29.5979 69.5145 29.4301C69.8204 29.2624 70.1647 29.1779 70.5131 29.185C71.7337 29.185 72.6861 30.0604 72.6861 31.9729C72.7531 34.249 71.3313 35.2187 70.1107 35.2187ZM70.3253 29.9392C69.1852 29.9392 68.8365 31.0166 68.8365 31.9863V33.3331C68.8373 33.5032 68.8738 33.6711 68.9435 33.8261C69.0132 33.9811 69.1146 34.1196 69.2411 34.2326C69.3676 34.3457 69.5164 34.4307 69.6777 34.4823C69.8391 34.5338 70.0095 34.5507 70.1778 34.5318C71.1033 34.5318 71.774 33.9257 71.774 31.9729C71.7606 30.4914 71.0899 29.9392 70.3253 29.9392Z" fill="white"/>
<path d="M74.7523 32.0942C74.7523 33.8585 75.6913 34.3838 76.5497 34.3838C77.0715 34.3781 77.5765 34.198 77.9849 33.872L78.2666 34.4511C77.6846 34.916 76.9577 35.1593 76.2144 35.138C74.9938 35.138 73.7598 34.2087 73.7598 32.1616C73.7598 29.8451 75.2889 29.1582 76.1741 29.1582C77.6764 29.1582 78.3739 30.1279 78.3739 31.8518V32.0942H74.7523ZM77.435 31.1784C77.4497 31.0091 77.4296 30.8386 77.3759 30.6774C77.3223 30.5162 77.2361 30.3679 77.1229 30.2416C77.0097 30.1153 76.8718 30.0137 76.7178 29.9432C76.5638 29.8726 76.397 29.8347 76.2278 29.8316C75.9059 29.8316 75.0474 29.9798 74.8865 31.4074H77.4752L77.435 31.1784Z" fill="white"/>
<path d="M81.2037 35.0168H79.46V29.2524H81.0561C82.1024 29.2524 83.4705 29.2524 83.4705 30.5992C83.4769 30.9143 83.3729 31.2217 83.1769 31.4677C82.9808 31.7138 82.705 31.8831 82.3975 31.946V32.0269C82.726 32.0339 83.0384 32.1709 83.267 32.4079C83.4955 32.6449 83.6217 32.9629 83.6181 33.2928C83.6181 34.6262 82.3572 35.0168 81.2037 35.0168ZM81.2037 29.9393C80.9558 29.9434 80.7089 29.9704 80.466 30.0201V31.744H81.3378C82.317 31.744 82.545 31.2996 82.545 30.6935C82.545 30.0875 81.4317 29.9528 81.15 29.9528L81.2037 29.9393ZM81.2842 32.3231H80.4794V34.2221C80.759 34.32 81.0563 34.3567 81.3512 34.3299C82.5584 34.3299 82.6926 33.6026 82.6926 33.239C82.6389 32.5386 82.0487 32.3231 81.2842 32.3231Z" fill="white"/>
<path d="M86.9317 35.2188C85.5904 35.2188 84.5039 34.2087 84.5039 32.1616C84.5039 29.5622 86.1001 29.1582 86.9719 29.1582C87.8438 29.1582 89.4802 29.5757 89.4802 32.1616C89.4802 34.2087 88.2462 35.2188 86.9317 35.2188ZM86.9317 29.8316C86.3952 29.8316 85.4697 29.9932 85.4697 32.1346C85.4697 33.7104 86.1269 34.4781 86.9317 34.4781C87.7365 34.4781 88.5279 33.7373 88.5279 32.1616C88.5279 30.0202 87.4951 29.8585 86.9719 29.8585L86.9317 29.8316Z" fill="white"/>
<path d="M92.8604 35.2188C91.5191 35.2188 90.4326 34.2087 90.4326 32.1616C90.4326 29.5622 92.0288 29.1582 92.9007 29.1582C93.7725 29.1582 95.4089 29.5757 95.4089 32.1616C95.4089 34.2087 94.1749 35.2188 92.8604 35.2188ZM92.8604 29.8316C92.3239 29.8316 91.3984 29.9932 91.3984 32.1346C91.3984 33.7104 92.0556 34.4781 92.8604 34.4781C93.6652 34.4781 94.3627 33.7104 94.3627 32.1346C94.4029 30.0202 93.4238 29.8585 92.9007 29.8585L92.8604 29.8316Z" fill="white"/>
<path d="M98.7618 35.2055C97.4205 35.2055 96.3877 34.2492 96.3877 31.8789C96.3877 29.8452 96.4682 27.7307 98.507 26.8418C99.1777 26.5455 100.452 26.3839 100.895 26.1011V27.1112C100.398 27.4344 99.1642 27.5287 98.4802 27.8519C98.0757 28.0603 97.7364 28.3769 97.4997 28.7666C97.263 29.1564 97.1381 29.6042 97.1388 30.0607H97.2327C97.4261 29.7696 97.6902 29.5329 97.9999 29.3726C98.3097 29.2124 98.655 29.134 99.0033 29.1448C99.8483 29.1448 101.324 29.4681 101.324 32.0674C101.372 32.4443 101.343 32.8271 101.239 33.1924C101.135 33.5577 100.957 33.8978 100.717 34.1916C100.477 34.4855 100.18 34.7271 99.8439 34.9014C99.5076 35.0757 99.1394 35.1792 98.7618 35.2055ZM98.9094 29.8182C98.5338 29.8182 97.3937 29.8856 97.3937 32.0405C97.3937 33.7105 98.0241 34.4782 98.8155 34.4782C99.6069 34.4782 100.371 33.7105 100.371 32.1347C100.371 30.0203 99.4325 29.8452 98.9094 29.8452V29.8182Z" fill="white"/>
<path d="M104.797 35.2187C104.558 35.2335 104.318 35.1927 104.097 35.0992C103.876 35.0058 103.68 34.8623 103.523 34.6799V37.7102H102.571V30.6799C102.575 30.2297 102.548 29.7797 102.49 29.3331L103.416 29.2389L103.523 30.1412C103.705 29.843 103.962 29.5979 104.268 29.4301C104.574 29.2624 104.918 29.1779 105.267 29.185C106.474 29.185 107.44 30.0604 107.44 31.9729C107.44 34.249 105.964 35.2187 104.797 35.2187ZM105.012 29.9392C103.858 29.9392 103.523 31.0166 103.523 31.9863V33.3331C103.524 33.5032 103.56 33.6711 103.63 33.8261C103.7 33.9811 103.801 34.1196 103.928 34.2326C104.054 34.3457 104.203 34.4307 104.364 34.4823C104.526 34.5338 104.696 34.5507 104.864 34.5318C105.776 34.5318 106.461 33.9257 106.461 31.9729C106.447 30.4914 105.79 29.9392 105.012 29.9392Z" fill="white"/>
<path d="M112.122 35.0167C112.001 34.7339 111.924 34.4341 111.894 34.1278C111.711 34.4568 111.438 34.7267 111.108 34.9056C110.778 35.0845 110.404 35.1651 110.029 35.1379C109.818 35.1393 109.609 35.0957 109.416 35.0099C109.223 34.924 109.051 34.798 108.91 34.64C108.769 34.4821 108.663 34.2959 108.6 34.0938C108.536 33.8917 108.516 33.6783 108.541 33.4678C108.541 31.7439 109.962 31.515 110.834 31.488H111.894V31.0975C111.894 30.0739 111.398 29.9123 110.915 29.9123C110.6 29.9354 110.294 30.0212 110.013 30.1646C109.732 30.3079 109.482 30.506 109.278 30.7473L108.836 30.0066C109.468 29.4896 110.26 29.2088 111.076 29.2119C112.833 29.2119 112.833 30.4241 112.833 31.1513V31.9594C112.717 32.981 112.776 34.015 113.007 35.0167H112.122ZM111.84 32.0268H111.022C110.311 32.0268 109.466 32.1614 109.466 33.2254C109.466 33.9796 109.828 34.3567 110.351 34.3567C111.344 34.3567 111.84 33.2658 111.84 32.5789V32.0268Z" fill="white"/>
<path d="M116.427 35.2055C115.086 35.2055 114.053 34.2492 114.053 31.8789C114.053 29.8452 114.053 27.7307 116.159 26.8418C116.829 26.5455 118.104 26.3839 118.546 26.1011L118.613 27.1112C118.13 27.4344 116.883 27.5287 116.212 27.8519C115.812 28.065 115.476 28.3826 115.239 28.7713C115.003 29.16 114.876 29.6054 114.871 30.0607H114.978C115.167 29.7774 115.422 29.5455 115.722 29.3857C116.021 29.2258 116.356 29.1431 116.695 29.1448C117.527 29.1448 119.016 29.4681 119.016 32.0674C119.062 32.4461 119.031 32.8303 118.924 33.1965C118.818 33.5627 118.638 33.9031 118.395 34.197C118.153 34.4908 117.853 34.7318 117.515 34.9052C117.176 35.0786 116.806 35.1808 116.427 35.2055ZM116.561 29.8182C116.185 29.8182 115.059 29.8856 115.059 32.0405C115.059 33.7105 115.689 34.4782 116.4 34.4782C117.111 34.4782 118.036 33.7374 118.036 32.1617C118.036 30.0203 117.084 29.8452 116.561 29.8452V29.8182Z" fill="white"/>
<path d="M123.697 35.0167C123.576 34.734 123.499 34.4341 123.469 34.1278C123.286 34.4569 123.014 34.7267 122.683 34.9057C122.353 35.0846 121.979 35.1652 121.605 35.1379C121.393 35.1394 121.184 35.0957 120.991 35.0099C120.798 34.9241 120.626 34.798 120.485 34.6401C120.344 34.4822 120.238 34.296 120.175 34.0939C120.111 33.8918 120.091 33.6784 120.116 33.4679C120.116 31.744 121.538 31.515 122.423 31.4881H123.469V31.0975C123.469 30.0739 122.973 29.9123 122.503 29.9123C122.188 29.9325 121.881 30.0169 121.599 30.1605C121.318 30.304 121.069 30.5037 120.867 30.7474L120.424 30.0066C121.051 29.4876 121.839 29.2063 122.651 29.212C124.408 29.212 124.408 30.4241 124.408 31.1514V31.9595C124.292 32.9811 124.351 34.0151 124.582 35.0167H123.697ZM123.402 32.0403H122.584C121.873 32.0403 121.028 32.175 121.028 33.2389C121.028 33.9931 121.39 34.3702 121.913 34.3702C122.906 34.3702 123.402 33.2793 123.402 32.5925V32.0403Z" fill="white"/>
<path d="M127.828 30.0067V35.0168H126.876V30.0067H125.307V29.2524H129.331V30.0067H127.828Z" fill="white"/>
<path d="M132.054 35.0168H130.323V29.2524H131.276V31.542C131.276 31.542 131.866 31.4612 132.188 31.4612C133.945 31.4612 134.414 32.2693 134.414 33.1582C134.414 34.505 133.22 35.0168 132.054 35.0168ZM132.054 32.0673C131.785 32.0673 131.276 32.0673 131.276 32.0673V34.2491C131.276 34.2491 131.732 34.2491 132.134 34.2491C133.221 34.2491 133.408 33.643 133.408 33.0504C133.408 32.3231 132.872 32.0807 132.054 32.0807V32.0673ZM135.085 35.0168V29.2524H136.037V35.0168H135.085Z" fill="white"/>
<path d="M139.256 35.0168H137.513V29.2524H139.109C140.155 29.2524 141.523 29.2524 141.523 30.5992C141.529 30.9162 141.423 31.2251 141.224 31.4714C141.026 31.7178 140.747 31.8859 140.437 31.946V32.0269C140.601 32.0286 140.762 32.0628 140.913 32.1273C141.064 32.1919 141.2 32.2857 141.315 32.4032C141.43 32.5208 141.52 32.6598 141.581 32.8125C141.642 32.9651 141.673 33.1284 141.671 33.2928C141.671 34.6262 140.41 35.0168 139.256 35.0168ZM139.256 29.9393C139.004 29.9441 138.753 29.9711 138.505 30.0201V31.744H139.391C140.37 31.744 140.598 31.2996 140.598 30.6935C140.598 30.0875 139.498 29.9528 139.203 29.9528L139.256 29.9393ZM139.391 32.3366H138.505V34.2356C138.79 34.3318 139.091 34.3685 139.391 34.3433C140.598 34.3433 140.732 33.6161 140.732 33.2524C140.692 32.5386 140.088 32.3231 139.337 32.3231L139.391 32.3366Z" fill="white"/>
<path d="M146.205 35.0167C146.084 34.7339 146.007 34.4341 145.977 34.1278C145.794 34.4568 145.521 34.7267 145.191 34.9056C144.861 35.0845 144.487 35.1651 144.112 35.1379C143.901 35.1393 143.692 35.0957 143.499 35.0099C143.306 34.924 143.134 34.798 142.993 34.64C142.852 34.4821 142.746 34.2959 142.683 34.0938C142.619 33.8917 142.599 33.6783 142.624 33.4678C142.624 31.7439 144.045 31.515 144.931 31.488H145.977V31.0975C145.977 30.0739 145.481 29.9123 145.011 29.9123C144.696 29.9324 144.389 30.0168 144.107 30.1604C143.826 30.304 143.577 30.5037 143.375 30.7473L142.919 30.0066C143.551 29.4896 144.343 29.2088 145.159 29.2119C146.929 29.2119 146.929 30.4241 146.929 31.1513V31.9594C146.821 33.0056 146.893 34.0627 147.144 35.084L146.205 35.0167ZM145.923 32.0268H145.105C144.394 32.0268 143.549 32.1614 143.549 33.2254C143.549 33.9796 143.911 34.3567 144.434 34.3567C145.427 34.3567 145.923 33.2658 145.923 32.5789V32.0268Z" fill="white"/>
<path d="M152.911 35.2056C151.57 35.2056 150.537 34.2629 150.47 32.3504H149.303V35.044H148.364V29.2528H149.303V31.7174H150.484C150.752 29.5895 152.133 29.145 152.952 29.145C153.77 29.145 155.446 29.576 155.446 32.1619C155.46 34.209 154.253 35.2056 152.911 35.2056ZM152.911 29.8184C152.375 29.8184 151.422 29.9935 151.422 32.1349C151.422 33.7107 152.107 34.4784 152.911 34.4784C153.716 34.4784 154.4 33.7107 154.4 32.1349C154.454 30.0204 153.475 29.8454 152.911 29.8454V29.8184Z" fill="white"/>
<path d="M163.749 36.3636L163.642 35.0168H156.681V29.2524H157.62V34.276H159.725V29.2524H160.678V34.276H162.784V29.2524H163.723V34.276H164.474V36.3636H163.749Z" fill="white"/>
<path d="M169.168 35.0166V30.5452L166.486 35.0301H165.533V29.2523H166.486V33.6698L169.168 29.2119H170.107V35.0166H169.168Z" fill="white"/>
<path d="M175.217 35.0171V30.5457L172.535 35.0305H171.596V29.2527H172.535V33.6703L175.217 29.2123H176.17V35.0171H175.217ZM173.876 28.6197C173.666 28.6404 173.454 28.6168 173.254 28.5504C173.053 28.4841 172.869 28.3765 172.712 28.2345C172.556 28.0925 172.431 27.9193 172.345 27.7259C172.258 27.5325 172.214 27.3232 172.213 27.1113H173.031C173.048 27.3364 173.151 27.5461 173.319 27.6966C173.486 27.8472 173.705 27.927 173.93 27.9194C174.042 27.9267 174.154 27.9115 174.26 27.8746C174.366 27.8377 174.464 27.78 174.548 27.7048C174.632 27.6295 174.699 27.5383 174.748 27.4364C174.796 27.3345 174.823 27.224 174.828 27.1113H175.579C175.576 27.3218 175.53 27.5295 175.445 27.7216C175.359 27.9137 175.235 28.0863 175.081 28.2287C174.926 28.3712 174.745 28.4805 174.547 28.55C174.349 28.6196 174.139 28.6479 173.93 28.6332L173.876 28.6197Z" fill="white"/>
<path d="M183.668 35.0166L182.849 33.3196C182.474 32.5654 182.179 32.4038 181.682 32.4038H181.293V35.0166H180.354V29.2523H181.293V31.7708H181.562C182.152 31.7708 182.299 31.5553 182.621 30.828L182.89 30.2085C183.006 29.8936 183.22 29.6245 183.5 29.4403C183.78 29.2562 184.111 29.1667 184.446 29.1849V30.0334C184.11 30.0334 183.721 30.0334 183.359 30.9897C183.305 31.1975 183.206 31.3908 183.069 31.556C182.932 31.7213 182.761 31.8543 182.568 31.9459V32.0132C182.808 32.102 183.028 32.2401 183.213 32.4186C183.397 32.5971 183.543 32.8122 183.641 33.0503L184.66 35.0301L183.668 35.0166Z" fill="white"/>
<path d="M187.638 35.2188C186.296 35.2188 185.21 34.2087 185.21 32.1616C185.21 29.5622 186.82 29.1582 187.691 29.1582C188.563 29.1582 190.186 29.5757 190.186 32.1616C190.186 34.2087 188.952 35.2188 187.638 35.2188ZM187.638 29.8316C187.101 29.8316 186.162 29.9932 186.162 32.1346C186.162 33.7104 186.833 34.4781 187.638 34.4781C188.443 34.4781 189.127 33.7104 189.127 32.1346C189.127 30.0202 188.201 29.8585 187.691 29.8585L187.638 29.8316Z" fill="white"/>
<path d="M196.33 35.017V30.7611L194.452 34.3975H194.184L192.239 30.7611V35.017H191.407L191.528 29.2393H192.467L194.479 32.9968L196.357 29.2393H197.175L197.296 35.017H196.33Z" fill="white"/>
<path d="M200.863 35.2055C199.522 35.2055 198.489 34.2492 198.489 31.8789C198.489 29.8452 198.556 27.7307 200.595 26.8418C201.266 26.5455 202.54 26.3839 202.983 26.1011V27.1112C202.5 27.4344 201.252 27.5287 200.582 27.8519C200.181 28.065 199.845 28.3826 199.609 28.7713C199.373 29.16 199.246 29.6054 199.24 30.0607H199.348C199.541 29.7696 199.805 29.5329 200.115 29.3726C200.425 29.2124 200.77 29.134 201.118 29.1448C201.95 29.1448 203.439 29.4681 203.439 32.0674C203.485 32.445 203.455 32.8282 203.349 33.1935C203.243 33.5589 203.064 33.8987 202.823 34.1923C202.582 34.486 202.284 34.7272 201.947 34.9014C201.61 35.0756 201.241 35.1791 200.863 35.2055ZM200.998 29.8182C200.622 29.8182 199.495 29.8856 199.495 32.0405C199.495 33.7105 200.126 34.4782 200.904 34.4782C201.682 34.4782 202.46 33.7105 202.46 32.1347C202.46 30.0203 201.521 29.8452 200.998 29.8452V29.8182Z" fill="white"/>
<path d="M208.335 35.0166V30.5452L205.653 35.0301H204.7V29.2523H205.653V33.6698L208.335 29.2119H209.274V35.0166H208.335Z" fill="white"/>
<path d="M214.129 35.0168V32.3231H211.674V35.0168H210.735V29.2524H211.674V31.6632H214.129V29.2524H215.081V35.0168H214.129Z" fill="white"/>
<path d="M219.977 35.0167C219.856 34.7339 219.779 34.4341 219.749 34.1278C219.566 34.4568 219.294 34.7267 218.964 34.9056C218.633 35.0845 218.259 35.1651 217.885 35.1379C217.674 35.1393 217.465 35.0957 217.272 35.0099C217.079 34.924 216.906 34.798 216.765 34.64C216.624 34.4821 216.519 34.2959 216.455 34.0938C216.391 33.8917 216.371 33.6783 216.396 33.4678C216.396 31.7439 217.818 31.515 218.69 31.488H219.749V31.0975C219.749 30.0739 219.253 29.9123 218.77 29.9123C218.456 29.9354 218.149 30.0212 217.868 30.1646C217.587 30.3079 217.338 30.506 217.134 30.7473L216.691 30.0066C217.324 29.4896 218.115 29.2088 218.931 29.2119C220.688 29.2119 220.688 30.4241 220.688 31.1513V31.9594C220.582 33.0063 220.659 34.0638 220.916 35.084L219.977 35.0167ZM219.696 32.0268H218.877C218.167 32.0268 217.322 32.1614 217.322 33.2254C217.322 33.9796 217.684 34.3567 218.207 34.3567C219.199 34.3567 219.696 33.2658 219.696 32.5789V32.0268Z" fill="white"/>
<path d="M224.149 30.0067V35.0168H223.196V30.0067H221.627V29.2524H225.651V30.0067H224.149Z" fill="white"/>
</g>
<defs>
<clipPath id="clip0_21_6505">
<rect width="226" height="40" fill="white"/>
</clipPath>
</defs>
</svg>
