<svg width="169" height="30" viewBox="0 0 169 30" fill="none" xmlns="http://www.w3.org/2000/svg">
<path d="M22.4199 5.01977L36.6999 8.63977V4.97977L22.4199 0.00976562V5.01977Z" fill="#0E9E2F"/>
<path d="M22.4199 11.8901L36.6999 13.1701V9.50014L22.4199 6.64014V11.8901Z" fill="#0E9E2F"/>
<path d="M13.4404 17.7902L36.7304 17.7702V14.1002L13.4404 12.9902V17.7902Z" fill="#0E9E2F"/>
<path d="M13.4602 23.7498L36.7002 22.4498V18.7798L13.4502 19.0698L13.4602 23.7498Z" fill="#0E9E2F"/>
<path d="M13.48 29.7L36.71 27.21V23.54L13.46 25.01L13.48 29.7Z" fill="#0E9E2F"/>
<path d="M21.94 11.9002C18.0674 11.3822 14.1474 11.3185 10.26 11.7102C3 12.3402 0 13.4502 0 13.4502V9.55024C3.34178 8.35702 6.80673 7.54193 10.33 7.12024C14.1774 6.60785 18.0638 6.45052 21.94 6.65024V11.9002Z" fill="white"/>
<path d="M21.93 5C18.0238 4.85214 14.1129 5.11019 10.26 5.77C6.75041 6.29674 3.30961 7.20892 0 8.49L0 4.83C3.38197 3.51809 6.82997 2.38322 10.33 1.43C14.1312 0.52175 18.0221 0.0420938 21.93 0V5Z" fill="white"/>
<path d="M13 25C7.5 24 0 23.48 0 23.48V27.14L13 29.66V25Z" fill="white"/>
<path d="M13 19.0701C8.68543 18.5213 4.32023 18.4978 0 19.0001L0 22.7001C4.32757 22.7427 8.64735 23.0768 12.93 23.7001H13V19.0701Z" fill="white"/>
<path d="M13 12.9999C7.4 12.7199 0 14.4799 0 14.4799V18.1399C4.29713 17.729 8.61812 17.6254 12.93 17.8299H13V12.9999Z" fill="white"/>
<path d="M44.4498 7.39996V18.05H41.5898V5.70996H47.7598V7.39996H44.4498Z" fill="white"/>
<path d="M53.1199 13.1799C52.7455 13.1797 52.3714 13.1563 51.9999 13.1099V18.0499H49.1299V5.87988C50.3744 5.72857 51.6263 5.64512 52.8799 5.62988C56.3599 5.62988 57.4999 7.29988 57.4999 9.16988C57.4999 11.5999 56.0499 13.1799 53.1199 13.1799ZM52.7299 7.29988C52.481 7.29786 52.2326 7.3247 51.9899 7.37988V11.5999C52.2338 11.6461 52.4816 11.6696 52.7299 11.6699C54.4499 11.6699 54.7299 10.5099 54.7299 9.32988C54.7713 9.05642 54.7483 8.77707 54.6629 8.51401C54.5775 8.25094 54.432 8.0114 54.2379 7.81438C54.0438 7.61736 53.8064 7.46828 53.5447 7.37897C53.2829 7.28967 53.0039 7.26259 52.7299 7.29988Z" fill="white"/>
<path d="M59.0801 18.05V5.70996H65.6301V7.39996H61.9301V10.74H64.9301V12.36H61.9301V16.36H65.7701V18.04L59.0801 18.05Z" fill="white"/>
<path d="M76.6998 18.05V9.58996L73.3898 17.06H72.6698L69.4198 9.56996V18.05H67.2998V5.70996H70.6598L73.6598 12.32L76.5698 5.70996H79.5698V18.05H76.6998Z" fill="white"/>
<path d="M87.23 18.0499V12.8399H87C86.45 12.8399 85.88 12.9399 85.25 14.7299L84.1 18.0499H81L82.36 15.1099C83.22 13.2299 83.67 12.7999 84.36 12.4399V12.3399C83.6085 12.259 82.9171 11.8918 82.4292 11.3145C81.9413 10.7373 81.6945 9.99432 81.74 9.23988C81.74 7.06988 83.17 5.62988 86.35 5.62988C87.09 5.62988 90.05 5.70988 90.05 5.70988V18.0499H87.23ZM87.23 7.39988C86.9524 7.32947 86.6662 7.29916 86.38 7.30988C86.1185 7.31444 85.8607 7.37265 85.6227 7.4809C85.3846 7.58916 85.1713 7.74516 84.996 7.93922C84.8206 8.13329 84.687 8.3613 84.6035 8.60912C84.5199 8.85693 84.4881 9.11927 84.51 9.37988C84.4853 9.62697 84.5113 9.87651 84.5866 10.1131C84.6619 10.3498 84.7849 10.5685 84.9479 10.7559C85.1108 10.9432 85.3105 11.0952 85.5344 11.2025C85.7583 11.3098 86.0019 11.3702 86.25 11.3799H87.25L87.23 7.39988Z" fill="white"/>
<path d="M97.8396 18.05V12.29C97.0535 12.9433 96.0617 13.2976 95.0396 13.29C91.8396 13.29 92.0396 10.57 92.0396 9.90996V5.70996H94.8996V9.28996C94.8996 10.57 95.0696 11.44 96.1996 11.44C96.5378 11.4644 96.8751 11.3806 97.1627 11.2009C97.4502 11.0212 97.6733 10.7547 97.7996 10.44V5.70996H100.66V18.05H97.8396Z" fill="white"/>
<path d="M109.77 18.05V9.27996L105.77 18.05H102.86V5.70996H105.72V14.09L109.72 5.70996H112.62V18.05H109.77Z" fill="white"/>
<path d="M121.06 18.05V12.56H117.56V18.05H114.7V5.70996H117.56V10.81H121.06V5.70996H123.91V18.05H121.06Z" fill="white"/>
<path d="M133.72 8.71977C133.475 8.28551 133.121 7.92205 132.693 7.66453C132.266 7.40701 131.779 7.26415 131.28 7.24977C130.28 7.24977 128.87 8.29977 128.87 11.8898C128.87 15.1398 130.11 16.2098 131.45 16.2098C132.377 16.2583 133.29 15.9785 134.03 15.4198L134.7 16.7298C134.16 17.261 133.517 17.6755 132.81 17.9473C132.103 18.2191 131.347 18.3425 130.59 18.3098C128.8 18.3098 125.94 16.8998 125.94 12.0298C125.94 6.92977 129.19 5.55977 131.45 5.55977C132.106 5.5223 132.761 5.62514 133.373 5.8614C133.986 6.09766 134.54 6.4619 135 6.92976L133.72 8.71977Z" fill="white"/>
<path d="M142.46 18.05L140.98 14.05C140.46 12.64 140.21 12.43 139.62 12.43H139.34V18.02H136.49V5.70996H139.34V11H139.62C140.29 11 140.46 10.36 140.98 9.13996L141.7 7.41996C141.832 6.89577 142.148 6.43652 142.591 6.1262C143.033 5.81588 143.573 5.67522 144.11 5.72996H144.94V7.75996H144.68C143.96 7.75996 143.68 8.61996 143.25 9.80996C142.82 11 142.6 11.24 141.98 11.5V11.6C142.53 11.77 142.98 12.17 143.65 13.6L145.65 18.02L142.46 18.05Z" fill="white"/>
<path d="M153.82 18.05V9.27996L149.82 18.05H146.91V5.70996H149.77V14.09L153.77 5.70996H156.66V18.05H153.82Z" fill="white"/>
<path d="M165.64 18.0501V9.28008L161.64 18.0501H158.73V5.71008H161.59V14.0901L165.59 5.71008H168.48V18.0501H165.64ZM163.71 5.71008C163.343 5.74475 162.973 5.70267 162.623 5.58651C162.273 5.47035 161.951 5.28264 161.677 5.03531C161.403 4.78798 161.184 4.48644 161.033 4.14984C160.882 3.81323 160.803 3.44894 160.8 3.08008H162.61C162.633 3.35503 162.759 3.61112 162.964 3.7967C163.168 3.98228 163.435 4.08355 163.71 4.08008C163.85 4.0941 163.991 4.07864 164.124 4.0347C164.257 3.99076 164.379 3.91933 164.483 3.82503C164.587 3.73074 164.67 3.61569 164.726 3.48735C164.782 3.35901 164.811 3.22026 164.81 3.08008H166.62C166.604 3.44443 166.515 3.80188 166.36 4.13175C166.204 4.46163 165.985 4.7574 165.714 5.00195C165.443 5.24651 165.127 5.43501 164.783 5.55655C164.439 5.6781 164.075 5.73028 163.71 5.71008Z" fill="white"/>
<path d="M45.1904 27L45.1104 26H42.2704L42.1904 27H41.6504V25.45H42.0004C42.3461 25.0407 42.5558 24.5339 42.6004 24C42.7021 23.432 42.7589 22.8569 42.7704 22.28V21.71H45.2604V25.44H45.7104V27H45.1904ZM44.5604 22.26H43.3804V22.77C43.3538 23.2205 43.2936 23.6684 43.2004 24.11C43.123 24.5715 42.9711 25.0173 42.7504 25.43H44.6004L44.5604 22.26Z" fill="white"/>
<path d="M47.1101 23.8299C47.1101 25.1399 47.8101 25.5299 48.4501 25.5299C48.8391 25.5257 49.2156 25.392 49.5201 25.1499L49.7301 25.5799C49.2962 25.9251 48.7543 26.1057 48.2001 26.0899C47.2901 26.0899 46.3701 25.3999 46.3701 23.8799C46.3701 22.1599 47.5101 21.6499 48.1701 21.6499C49.2901 21.6499 49.8001 22.3699 49.8001 23.6499V23.8299H47.1101ZM49.1101 23.1499C49.1226 23.0247 49.1089 22.8983 49.0701 22.7787C49.0312 22.659 48.968 22.5487 48.8844 22.4548C48.8007 22.3608 48.6985 22.2852 48.5842 22.2327C48.4699 22.1803 48.3459 22.152 48.2201 22.1499C47.9801 22.1499 47.3401 22.2599 47.2201 23.3199H49.1401L49.1101 23.1499Z" fill="white"/>
<path d="M52.2698 26.1502C52.0832 26.1694 51.8947 26.143 51.7205 26.0733C51.5464 26.0037 51.3917 25.8928 51.2698 25.7502V28.0002H50.5698V22.7802C50.5674 22.4461 50.5473 22.1123 50.5098 21.7802L51.1898 21.7102L51.2698 22.3802C51.4057 22.1588 51.5972 21.9768 51.8253 21.8522C52.0533 21.7277 52.31 21.6649 52.5698 21.6702C53.4798 21.6702 54.1898 22.3202 54.1898 23.7402C54.2398 25.4302 53.1798 26.1502 52.2698 26.1502ZM52.4298 22.2302C51.5798 22.2302 51.3198 23.0302 51.3198 23.7502V24.7502C51.3204 24.8765 51.3476 25.0012 51.3995 25.1163C51.4515 25.2313 51.5271 25.3342 51.6214 25.4181C51.7157 25.502 51.8266 25.5652 51.947 25.6035C52.0673 25.6417 52.1943 25.6543 52.3198 25.6402C53.0098 25.6402 53.5098 25.1902 53.5098 23.7402C53.4998 22.6402 52.9998 22.2302 52.4298 22.2302Z" fill="white"/>
<path d="M55.7302 23.8299C55.7302 25.1399 56.4302 25.5299 57.0702 25.5299C57.4592 25.5257 57.8357 25.392 58.1402 25.1499L58.3502 25.5799C57.9164 25.9251 57.3744 26.1057 56.8202 26.0899C55.9102 26.0899 54.9902 25.3999 54.9902 23.8799C54.9902 22.1599 56.1302 21.6499 56.7902 21.6499C57.9102 21.6499 58.4302 22.3699 58.4302 23.6499V23.8299H55.7302ZM57.7302 23.1499C57.7412 23.0242 57.7262 22.8976 57.6862 22.7779C57.6462 22.6583 57.582 22.5481 57.4976 22.4543C57.4132 22.3605 57.3103 22.2851 57.1955 22.2327C57.0807 22.1804 56.9564 22.1522 56.8302 22.1499C56.5902 22.1499 55.9502 22.2599 55.8302 23.3199H57.7602L57.7302 23.1499Z" fill="white"/>
<path d="M60.5402 26.0002H59.2402V21.7202H60.4302C61.2102 21.7202 62.2302 21.7202 62.2302 22.7202C62.235 22.9542 62.1575 23.1824 62.0113 23.3651C61.8651 23.5478 61.6595 23.6735 61.4302 23.7202V23.7802C61.6751 23.7855 61.9081 23.8871 62.0785 24.0631C62.2489 24.2391 62.3429 24.4753 62.3402 24.7202C62.3402 25.7102 61.4002 26.0002 60.5402 26.0002ZM60.5402 22.2302C60.3554 22.2332 60.1713 22.2533 59.9902 22.2902V23.5702H60.6402C61.3702 23.5702 61.5402 23.2402 61.5402 22.7902C61.5402 22.3402 60.7102 22.2402 60.5002 22.2402L60.5402 22.2302ZM60.6002 24.0002H60.0002V25.4102C60.2087 25.4829 60.4303 25.5101 60.6502 25.4902C61.5502 25.4902 61.6502 24.9502 61.6502 24.6802C61.6102 24.1602 61.1702 24.0002 60.6002 24.0002Z" fill="white"/>
<path d="M64.81 26.1499C63.81 26.1499 63 25.3999 63 23.8799C63 21.9499 64.19 21.6499 64.84 21.6499C65.49 21.6499 66.71 21.9599 66.71 23.8799C66.71 25.3999 65.79 26.1499 64.81 26.1499ZM64.81 22.1499C64.41 22.1499 63.72 22.2699 63.72 23.8599C63.72 25.0299 64.21 25.5999 64.81 25.5999C65.41 25.5999 66 25.0499 66 23.8799C66 22.2899 65.23 22.1699 64.84 22.1699L64.81 22.1499Z" fill="white"/>
<path d="M69.2299 26.1499C68.2299 26.1499 67.4199 25.3999 67.4199 23.8799C67.4199 21.9499 68.6099 21.6499 69.2599 21.6499C69.9099 21.6499 71.1299 21.9599 71.1299 23.8799C71.1299 25.3999 70.2099 26.1499 69.2299 26.1499ZM69.2299 22.1499C68.8299 22.1499 68.1399 22.2699 68.1399 23.8599C68.1399 25.0299 68.6299 25.5999 69.2299 25.5999C69.8299 25.5999 70.3499 25.0299 70.3499 23.8599C70.3799 22.2899 69.6499 22.1699 69.2599 22.1699L69.2299 22.1499Z" fill="white"/>
<path d="M73.6303 26.1399C72.6303 26.1399 71.8604 25.4299 71.8604 23.6699C71.8604 22.1599 71.9204 20.5899 73.4404 19.9299C73.9404 19.7099 74.8904 19.5899 75.2204 19.3799V20.1299C74.8504 20.3699 73.9303 20.4399 73.4203 20.6799C73.1188 20.8346 72.8658 21.0696 72.6894 21.359C72.5129 21.6484 72.4198 21.9809 72.4203 22.3199H72.4903C72.6345 22.1038 72.8314 21.928 73.0623 21.809C73.2933 21.6901 73.5507 21.6318 73.8103 21.6399C74.4403 21.6399 75.5404 21.8799 75.5404 23.8099C75.5765 24.0897 75.555 24.374 75.4772 24.6452C75.3995 24.9164 75.2671 25.1689 75.0882 25.3871C74.9094 25.6053 74.6878 25.7847 74.4371 25.9141C74.1864 26.0436 73.9118 26.1204 73.6303 26.1399ZM73.7403 22.1399C73.4603 22.1399 72.6104 22.1899 72.6104 23.7899C72.6104 25.0299 73.0803 25.5999 73.6703 25.5999C74.2603 25.5999 74.8304 25.0299 74.8304 23.8599C74.8304 22.2899 74.1303 22.1599 73.7403 22.1599V22.1399Z" fill="white"/>
<path d="M78.1301 26.1502C77.9517 26.1613 77.7731 26.1309 77.6083 26.0615C77.4435 25.9922 77.297 25.8856 77.1802 25.7502V28.0002H76.4702V22.7802C76.473 22.4459 76.4529 22.1118 76.4102 21.7802L77.1002 21.7102L77.1802 22.3802C77.3161 22.1588 77.5076 21.9768 77.7357 21.8522C77.9637 21.7277 78.2204 21.6649 78.4802 21.6702C79.3802 21.6702 80.1002 22.3202 80.1002 23.7402C80.1002 25.4302 79.0001 26.1502 78.1301 26.1502ZM78.2902 22.2302C77.4302 22.2302 77.1802 23.0302 77.1802 23.7502V24.7502C77.1808 24.8765 77.2079 25.0012 77.2599 25.1163C77.3119 25.2313 77.3875 25.3342 77.4818 25.4181C77.5761 25.502 77.687 25.5652 77.8073 25.6035C77.9277 25.6417 78.0547 25.6543 78.1802 25.6402C78.8602 25.6402 79.3702 25.1902 79.3702 23.7402C79.3602 22.6402 78.8702 22.2302 78.2902 22.2302Z" fill="white"/>
<path d="M83.5897 26C83.4994 25.79 83.4421 25.5674 83.4198 25.34C83.2835 25.5843 83.0803 25.7846 82.834 25.9175C82.5878 26.0504 82.3088 26.1102 82.0298 26.09C81.8724 26.091 81.7166 26.0586 81.5727 25.9949C81.4287 25.9312 81.3 25.8376 81.1951 25.7203C81.0901 25.6031 81.0113 25.4648 80.9638 25.3148C80.9163 25.1647 80.9013 25.0063 80.9198 24.85C80.9198 23.57 81.9798 23.4 82.6298 23.38H83.4198V23.09C83.4198 22.33 83.0498 22.21 82.6898 22.21C82.4554 22.2272 82.2269 22.2908 82.0174 22.3973C81.8079 22.5037 81.6218 22.6508 81.4698 22.83L81.1398 22.28C81.6115 21.8961 82.2016 21.6876 82.8098 21.69C84.1198 21.69 84.1198 22.59 84.1198 23.13V23.73C84.0332 24.4885 84.0772 25.2563 84.2498 26H83.5897ZM83.3798 23.78H82.7697C82.2397 23.78 81.6098 23.88 81.6098 24.67C81.6098 25.23 81.8797 25.51 82.2697 25.51C83.0097 25.51 83.3798 24.7 83.3798 24.19V23.78Z" fill="white"/>
<path d="M86.8003 26.1399C85.8003 26.1399 85.0303 25.4299 85.0303 23.6699C85.0303 22.1599 85.0303 20.5899 86.6003 19.9299C87.1003 19.7099 88.0503 19.5899 88.3803 19.3799L88.4303 20.1299C88.0703 20.3699 87.1403 20.4399 86.6403 20.6799C86.3415 20.8381 86.091 21.0739 85.915 21.3625C85.739 21.6511 85.6441 21.9819 85.6403 22.3199H85.7203C85.8608 22.1096 86.0513 21.9374 86.2746 21.8187C86.498 21.7 86.7473 21.6386 87.0003 21.6399C87.6203 21.6399 88.7303 21.8799 88.7303 23.8099C88.7649 24.091 88.7418 24.3763 88.6622 24.6482C88.5827 24.9201 88.4484 25.1729 88.2677 25.3911C88.087 25.6092 87.8636 25.7882 87.6113 25.917C87.359 26.0457 87.083 26.1216 86.8003 26.1399ZM86.9003 22.1399C86.6203 22.1399 85.7803 22.1899 85.7803 23.7899C85.7803 25.0299 86.2503 25.5999 86.7803 25.5999C87.3103 25.5999 88.0003 25.0499 88.0003 23.8799C88.0003 22.2899 87.2903 22.1599 86.9003 22.1599V22.1399Z" fill="white"/>
<path d="M92.2196 26C92.1293 25.7901 92.072 25.5674 92.0496 25.34C91.9133 25.5843 91.7101 25.7847 91.4639 25.9175C91.2177 26.0504 90.9387 26.1102 90.6596 26.09C90.5023 26.0911 90.3464 26.0587 90.2025 25.995C90.0586 25.9312 89.9299 25.8376 89.8249 25.7204C89.72 25.6031 89.6411 25.4649 89.5937 25.3148C89.5462 25.1647 89.5312 25.0063 89.5496 24.85C89.5496 23.57 90.6096 23.4 91.2696 23.38H92.0496V23.09C92.0496 22.33 91.6796 22.21 91.3296 22.21C91.0948 22.2249 90.8655 22.2876 90.6557 22.3942C90.446 22.5008 90.2601 22.6491 90.1096 22.83L89.7796 22.28C90.2466 21.8947 90.8342 21.6858 91.4396 21.69C92.7496 21.69 92.7496 22.59 92.7496 23.13V23.73C92.6631 24.4885 92.7071 25.2563 92.8796 26H92.2196ZM91.9996 23.79H91.3896C90.8596 23.79 90.2296 23.89 90.2296 24.68C90.2296 25.24 90.4996 25.52 90.8896 25.52C91.6296 25.52 91.9996 24.71 91.9996 24.2V23.79Z" fill="white"/>
<path d="M95.2999 22.2802V26.0002H94.5899V22.2802H93.4199V21.7202H96.4199V22.2802H95.2999Z" fill="white"/>
<path d="M98.4501 26.0002H97.1602V21.7202H97.8702V23.4202C97.8702 23.4202 98.3102 23.3602 98.5502 23.3602C99.8602 23.3602 100.21 23.9602 100.21 24.6202C100.21 25.6202 99.3201 26.0002 98.4501 26.0002ZM98.4501 23.8102C98.2501 23.8102 97.8702 23.8102 97.8702 23.8102V25.4302C97.8702 25.4302 98.2102 25.4302 98.5102 25.4302C99.3202 25.4302 99.4602 24.9802 99.4602 24.5402C99.4602 24.0002 99.0601 23.8202 98.4501 23.8202V23.8102ZM100.71 26.0002V21.7202H101.42V26.0002H100.71Z" fill="white"/>
<path d="M103.82 26.0002H102.52V21.7202H103.71C104.49 21.7202 105.51 21.7202 105.51 22.7202C105.514 22.9556 105.435 23.1849 105.287 23.3678C105.139 23.5507 104.931 23.6755 104.7 23.7202V23.7802C104.822 23.7815 104.942 23.8069 105.055 23.8548C105.167 23.9028 105.269 23.9724 105.354 24.0597C105.44 24.147 105.507 24.2502 105.553 24.3636C105.598 24.4769 105.621 24.5981 105.62 24.7202C105.62 25.7102 104.68 26.0002 103.82 26.0002ZM103.82 22.2302C103.631 22.2338 103.444 22.2538 103.26 22.2902V23.5702H103.92C104.65 23.5702 104.82 23.2402 104.82 22.7902C104.82 22.3402 104 22.2402 103.78 22.2402L103.82 22.2302ZM103.92 24.0102H103.26V25.4202C103.472 25.4917 103.696 25.5189 103.92 25.5002C104.82 25.5002 104.92 24.9602 104.92 24.6902C104.89 24.1602 104.44 24.0002 103.88 24.0002L103.92 24.0102Z" fill="white"/>
<path d="M109 26C108.91 25.79 108.852 25.5674 108.83 25.34C108.694 25.5843 108.49 25.7846 108.244 25.9175C107.998 26.0504 107.719 26.1102 107.44 26.09C107.283 26.091 107.127 26.0586 106.983 25.9949C106.839 25.9312 106.71 25.8376 106.605 25.7203C106.5 25.6031 106.421 25.4648 106.374 25.3148C106.326 25.1647 106.311 25.0063 106.33 24.85C106.33 23.57 107.39 23.4 108.05 23.38H108.83V23.09C108.83 22.33 108.46 22.21 108.11 22.21C107.875 22.2249 107.646 22.2876 107.436 22.3942C107.226 22.5008 107.04 22.6491 106.89 22.83L106.55 22.28C107.022 21.8961 107.612 21.6876 108.22 21.69C109.54 21.69 109.54 22.59 109.54 23.13V23.73C109.459 24.5067 109.513 25.2916 109.7 26.05L109 26ZM108.79 23.78H108.18C107.65 23.78 107.02 23.88 107.02 24.67C107.02 25.23 107.29 25.51 107.68 25.51C108.42 25.51 108.79 24.7 108.79 24.19V23.78Z" fill="white"/>
<path d="M114 26.1401C113 26.1401 112.23 25.4401 112.18 24.0201H111.31V26.0201H110.61V21.7201H111.31V23.5501H112.19C112.39 21.9701 113.42 21.6401 114.03 21.6401C114.64 21.6401 115.89 21.9601 115.89 23.8801C115.9 25.4001 115 26.1401 114 26.1401ZM114 22.1401C113.6 22.1401 112.89 22.2701 112.89 23.8601C112.89 25.0301 113.4 25.6001 114 25.6001C114.6 25.6001 115.11 25.0301 115.11 23.8601C115.15 22.2901 114.42 22.1601 114 22.1601V22.1401Z" fill="white"/>
<path d="M122.08 27.0002L122 26.0002H116.81V21.7202H117.51V25.4502H119.08V21.7202H119.79V25.4502H121.36V21.7202H122.06V25.4502H122.62V27.0002H122.08Z" fill="white"/>
<path d="M126.12 25.9999V22.6799L124.12 26.0099H123.41V21.7199H124.12V24.9999L126.12 21.6899H126.82V25.9999H126.12Z" fill="white"/>
<path d="M130.63 25.9999V22.6799L128.63 26.0099H127.93V21.7199H128.63V24.9999L130.63 21.6899H131.34V25.9999H130.63ZM129.63 21.2499C129.473 21.2652 129.315 21.2477 129.166 21.1984C129.016 21.1491 128.879 21.0692 128.762 20.9638C128.646 20.8584 128.552 20.7298 128.488 20.5862C128.424 20.4426 128.39 20.2872 128.39 20.1299H129C129.012 20.297 129.089 20.4527 129.214 20.5645C129.339 20.6763 129.502 20.7355 129.67 20.7299C129.753 20.7353 129.837 20.724 129.916 20.6966C129.995 20.6692 130.068 20.6264 130.131 20.5705C130.193 20.5146 130.244 20.4469 130.28 20.3713C130.315 20.2956 130.336 20.2135 130.34 20.1299H130.9C130.897 20.2862 130.863 20.4404 130.799 20.583C130.735 20.7257 130.643 20.8538 130.528 20.9595C130.413 21.0653 130.277 21.1465 130.13 21.1981C129.982 21.2498 129.826 21.2708 129.67 21.2599L129.63 21.2499Z" fill="white"/>
<path d="M136.93 26.0002L136.32 24.7402C136.04 24.1802 135.82 24.0602 135.45 24.0602H135.16V26.0002H134.46V21.7202H135.16V23.5902H135.36C135.8 23.5902 135.91 23.4302 136.15 22.8902L136.35 22.4302C136.437 22.1964 136.597 21.9965 136.805 21.8598C137.014 21.7231 137.261 21.6566 137.51 21.6702V22.3002C137.26 22.3002 136.97 22.3002 136.7 23.0102C136.66 23.1645 136.586 23.308 136.484 23.4307C136.382 23.5534 136.254 23.6522 136.11 23.7202V23.7702C136.289 23.8361 136.453 23.9386 136.591 24.0712C136.729 24.2037 136.837 24.3634 136.91 24.5402L137.67 26.0102L136.93 26.0002Z" fill="white"/>
<path d="M139.89 26.1499C138.89 26.1499 138.08 25.3999 138.08 23.8799C138.08 21.9499 139.28 21.6499 139.93 21.6499C140.58 21.6499 141.79 21.9599 141.79 23.8799C141.79 25.3999 140.87 26.1499 139.89 26.1499ZM139.89 22.1499C139.49 22.1499 138.79 22.2699 138.79 23.8599C138.79 25.0299 139.29 25.5999 139.89 25.5999C140.49 25.5999 141 25.0299 141 23.8599C141 22.2899 140.31 22.1699 139.93 22.1699L139.89 22.1499Z" fill="white"/>
<path d="M146.37 26V22.84L144.97 25.54H144.77L143.32 22.84V26H142.7L142.79 21.71H143.49L144.99 24.5L146.39 21.71H147L147.09 26H146.37Z" fill="white"/>
<path d="M149.75 26.1399C148.75 26.1399 147.98 25.4299 147.98 23.6699C147.98 22.1599 148.03 20.5899 149.55 19.9299C150.05 19.7099 151 19.5899 151.33 19.3799V20.1299C150.97 20.3699 150.04 20.4399 149.54 20.6799C149.242 20.8381 148.991 21.0739 148.815 21.3625C148.639 21.6511 148.544 21.9819 148.54 22.3199H148.62C148.765 22.1038 148.962 21.928 149.192 21.809C149.423 21.6901 149.681 21.6318 149.94 21.6399C150.56 21.6399 151.67 21.8799 151.67 23.8099C151.705 24.0903 151.682 24.3748 151.603 24.646C151.524 24.9173 151.391 25.1696 151.211 25.3876C151.032 25.6057 150.81 25.7848 150.558 25.9141C150.307 26.0435 150.032 26.1203 149.75 26.1399ZM149.85 22.1399C149.57 22.1399 148.73 22.1899 148.73 23.7899C148.73 25.0299 149.2 25.5999 149.78 25.5999C150.36 25.5999 150.94 25.0299 150.94 23.8599C150.94 22.2899 150.24 22.1599 149.85 22.1599V22.1399Z" fill="white"/>
<path d="M155.32 25.9999V22.6799L153.32 26.0099H152.61V21.7199H153.32V24.9999L155.32 21.6899H156.02V25.9999H155.32Z" fill="white"/>
<path d="M159.64 26.0002V24.0002H157.81V26.0002H157.11V21.7202H157.81V23.5102H159.64V21.7202H160.35V26.0002H159.64Z" fill="white"/>
<path d="M164 26C163.91 25.79 163.852 25.5674 163.83 25.34C163.694 25.5843 163.49 25.7846 163.244 25.9175C162.998 26.0504 162.719 26.1102 162.44 26.09C162.283 26.091 162.127 26.0586 161.983 25.9949C161.839 25.9312 161.71 25.8376 161.605 25.7203C161.5 25.6031 161.421 25.4648 161.374 25.3148C161.326 25.1647 161.311 25.0063 161.33 24.85C161.33 23.57 162.39 23.4 163.04 23.38H163.83V23.09C163.83 22.33 163.46 22.21 163.1 22.21C162.866 22.2272 162.637 22.2908 162.428 22.3973C162.218 22.5037 162.032 22.6508 161.88 22.83L161.55 22.28C162.022 21.8961 162.612 21.6876 163.22 21.69C164.53 21.69 164.53 22.59 164.53 23.13V23.73C164.451 24.5073 164.508 25.2925 164.7 26.05L164 26ZM163.79 23.78H163.18C162.65 23.78 162.02 23.88 162.02 24.67C162.02 25.23 162.29 25.51 162.68 25.51C163.42 25.51 163.79 24.7 163.79 24.19V23.78Z" fill="white"/>
<path d="M167.11 22.2802V26.0002H166.4V22.2802H165.23V21.7202H168.23V22.2802H167.11Z" fill="white"/>
</svg>
