<svg width="569" height="255" viewBox="0 0 569 255" fill="none" xmlns="http://www.w3.org/2000/svg">
<g opacity="0.05">
<path d="M409.547 -141.578L456.839 -158.533L508.592 -182.62L557.669 -183.516L599.607 -207.61L646.899 -223.668V-224.558L598.718 -209.39L556.78 -187.978L505.916 -188.868L454.163 -165.67L405.983 -150.502L405.086 -209.388L404.196 -290.589L408.659 -344.129L402.41 -384.281L401.52 -442.277H400.63L399.734 -384.281L404.196 -344.129L400.63 -292.376L397.953 -209.39L397.057 -150.503L356.906 -162.995L303.365 -179.053L291.769 -187.083H274.814L197.186 -211.176L196.29 -210.286L273.027 -183.516L289.092 -182.619L299.797 -174.59L354.227 -155.855L393.49 -141.577L372.962 -111.241L360.47 -89.8241L330.134 -49.6725L309.613 -19.3362L288.196 11.0066L289.092 11.8966L311.4 -17.549L333.707 -47.8853L364.934 -85.3617L379.212 -106.778L401.52 -136.224L420.261 -119.269L437.21 -80.897L467.552 -47.8838L480.934 -32.7156L501.455 -5.94519V-6.84149L483.611 -33.6055L472.01 -50.5607L442.569 -84.4694L427.394 -121.946L409.547 -141.578Z" fill="white"/>
<path d="M409.549 16.3555C389.028 16.3555 370.287 8.32635 353.333 -6.84247C331.917 -25.5838 309.609 -41.6419 282.845 -56.8093C257.861 -71.0874 243.583 -92.4978 239.121 -122.84C235.555 -153.177 242.688 -179.057 259.642 -198.689C267.672 -208.504 276.598 -218.319 284.627 -227.245C294.442 -238.847 304.257 -250.443 314.072 -262.045C332.814 -283.461 356.01 -296.844 383.671 -302.196C411.332 -307.548 438.101 -303.982 463.974 -291.491C488.068 -278.999 510.375 -262.045 530.006 -239.738C548.747 -217.43 558.562 -191.557 559.451 -164.787C560.341 -135.341 558.561 -107.68 553.202 -81.8065C547.849 -54.1471 532.681 -32.7288 507.697 -17.5615C481.823 -2.39328 455.053 8.31189 428.283 13.672C422.936 15.4583 415.797 16.3546 409.548 16.3546L409.549 16.3555ZM408.659 -303.978C400.63 -303.978 392.601 -303.087 384.566 -301.301C356.906 -295.948 333.702 -282.56 314.967 -261.15C305.151 -249.548 295.336 -237.952 285.521 -226.35C277.492 -216.535 268.566 -206.72 260.537 -197.794C243.582 -178.163 236.443 -152.288 240.016 -121.946C244.479 -91.6092 258.757 -70.1925 283.74 -55.9143C310.51 -40.7461 332.817 -24.6808 354.228 -5.94745C375.644 13.683 400.629 20.8229 429.179 14.5737C456.838 9.22089 482.719 -1.48438 508.593 -16.6597C533.577 -31.8279 548.744 -53.2453 554.098 -80.9048C559.451 -106.778 561.237 -134.446 560.347 -163.885C559.457 -190.655 549.642 -216.529 530.902 -238.836C511.271 -261.143 489.853 -278.098 464.87 -290.589C447.026 -299.521 428.291 -303.977 408.661 -303.977L408.659 -303.978Z" fill="white"/>
<path d="M419.375 40.451C409.56 40.451 399.745 39.5609 389.93 36.8845C363.159 29.7454 339.963 18.1432 317.656 -0.591766C297.134 -18.436 275.718 -35.3912 253.411 -51.4557C231.103 -67.5138 218.611 -89.8211 215.934 -119.268C213.258 -148.714 217.721 -176.375 230.212 -199.572C241.814 -222.77 259.658 -242.4 282.856 -260.244C306.054 -278.088 327.471 -295.044 347.992 -311.997C369.408 -329.841 394.393 -335.195 422.052 -328.952C449.712 -322.703 475.593 -311.997 499.68 -297.719C522.878 -283.441 542.508 -264.706 558.573 -241.503C574.631 -219.196 582.666 -193.322 583.557 -164.766C584.447 -138.892 582.667 -110.336 579.094 -80.8886C575.528 -52.332 563.036 -30.0247 540.729 -13.076C518.422 3.87921 494.328 18.1575 468.455 29.7525C452.397 36.8792 436.332 40.4518 419.377 40.4518L419.375 40.451ZM400.64 -331.635C381.01 -331.635 363.164 -325.386 347.997 -312.005C327.476 -295.05 306.059 -278.096 282.861 -260.252C259.663 -242.407 241.812 -222.775 230.217 -199.579C217.726 -176.381 213.262 -149.612 215.939 -119.276C218.616 -89.8302 231.107 -67.5229 253.415 -51.4632C275.724 -35.4035 297.139 -18.4499 317.661 -0.599274C339.968 18.1421 363.166 29.7371 389.935 36.877C416.705 44.0161 442.578 41.3398 468.458 29.7379C494.331 18.1362 518.425 3.86456 540.732 -13.0906C563.039 -30.0457 575.532 -52.3531 579.098 -80.9032C582.664 -110.349 584.45 -138.899 583.56 -164.78C582.67 -193.337 574.635 -218.321 558.576 -241.518C542.518 -264.716 522.888 -283.455 499.683 -297.734C475.59 -312.012 449.716 -322.718 422.055 -328.967C414.91 -330.741 407.777 -331.637 400.639 -331.637L400.64 -331.635Z" fill="white"/>
<path d="M406.868 68.1122C387.237 68.1122 369.391 62.7595 352.438 51.1571C329.24 35.9889 306.037 20.8207 282.839 7.43317C259.641 -5.94867 240.011 -22.9032 222.166 -44.3198C205.211 -64.841 195.396 -89.8252 192.721 -117.491C190.934 -146.937 193.611 -173.707 201.646 -198.691C209.675 -225.462 224.844 -245.983 248.047 -262.047C269.464 -277.215 289.985 -295.06 310.506 -317.368C329.247 -338.784 352.444 -350.381 380.105 -352.167C406.875 -354.844 433.645 -351.277 460.408 -342.352C487.178 -333.426 511.272 -320.044 531.793 -303.986C552.314 -287.928 570.158 -268.298 585.334 -242.416C598.715 -218.323 605.855 -192.45 606.75 -165.679C606.75 -140.695 604.964 -112.138 602.288 -81.8021C599.611 -54.1427 588.906 -30.0492 571.054 -9.52805C552.313 11.8885 530.903 28.8373 506.809 39.5496C480.039 52.0414 454.165 60.0708 428.286 65.4229C422.037 67.2155 414.008 68.1118 406.869 68.1118L406.868 68.1122ZM398.839 -352.158C392.589 -352.158 387.237 -352.158 380.994 -351.268C353.335 -349.481 330.13 -337.886 311.395 -316.468C290.874 -294.161 270.347 -276.317 248.937 -261.148C225.739 -245.09 210.571 -224.562 202.536 -197.792C194.507 -172.807 191.83 -146.039 193.61 -116.591C196.287 -88.9319 206.102 -63.9477 223.056 -43.4202C240.9 -22.0036 260.532 -5.05478 283.729 8.33279C306.927 21.7146 330.129 36.8893 353.327 52.0567C376.526 67.2249 400.619 71.6871 429.176 66.3348C455.049 60.982 480.929 52.953 507.699 40.4615C531.792 29.7559 553.204 12.802 571.944 -8.61618C589.788 -29.1373 600.501 -53.2308 603.177 -80.8903C605.854 -111.227 607.64 -139.783 607.64 -164.767C606.75 -191.538 599.611 -217.411 586.224 -241.505C571.055 -267.378 553.21 -287.01 532.683 -303.074C512.162 -319.132 488.068 -332.52 461.298 -341.44C440.777 -348.585 419.36 -352.158 398.839 -352.158L398.839 -352.158Z" fill="white"/>
<path d="M408.666 91.3082C385.468 91.3082 364.942 84.1691 346.207 70.7871C322.114 52.9428 296.241 36.8783 268.579 22.6064C240.92 7.43826 217.716 -11.3023 200.767 -34.5003C182.923 -58.5938 173.107 -85.3642 170.43 -117.48C167.754 -147.817 170.43 -179.05 178.46 -209.386C186.489 -240.62 204.333 -263.816 231.103 -278.095C258.763 -294.153 282.856 -313.783 301.591 -336.988C321.222 -361.081 347.097 -374.464 378.328 -376.25C410.451 -378.036 440.787 -374.464 469.344 -364.648C499.68 -354.833 526.451 -339.664 548.758 -320.924C572.851 -301.294 592.482 -278.096 607.651 -251.326C622.819 -223.666 630.849 -195.109 630.849 -165.662C630.849 -136.217 629.063 -105.879 627.282 -74.6468V-71.9704C624.606 -39.8478 612.114 -13.0775 590.697 7.4437C568.389 28.8603 543.405 46.7062 516.636 60.0874C489.866 74.3655 460.42 84.1808 429.193 89.533C422.048 90.4168 414.909 91.3069 408.666 91.3069L408.666 91.3082ZM393.498 -377.146H378.33C347.096 -375.359 321.223 -361.977 301.593 -337.883C282.851 -314.685 258.764 -295.055 231.105 -278.99C204.334 -263.822 186.49 -241.514 178.461 -210.282C170.432 -179.946 167.755 -148.712 170.432 -118.376C173.108 -86.2533 182.924 -59.4829 200.768 -35.3958C217.723 -12.1977 240.92 6.54199 268.581 21.711C296.24 35.9891 322.122 52.0473 346.209 69.8916C370.302 87.7358 397.962 93.9851 429.189 88.6329C460.422 83.2802 489.861 73.4648 516.632 59.1873C543.402 45.8054 568.385 27.9538 590.692 6.54358C612.109 -13.9776 624.601 -40.7479 627.278 -72.8705V-75.5468C629.064 -106.78 630.844 -137.117 630.844 -166.562C630.844 -196.008 622.815 -224.558 607.646 -252.226C592.478 -278.996 572.847 -302.192 548.753 -321.824C526.446 -340.559 499.682 -354.838 469.339 -365.544C445.252 -372.683 419.372 -377.145 393.498 -377.145L393.498 -377.146Z" fill="white"/>
<path d="M383.667 185.002C350.654 185.002 323.884 175.186 299.79 154.665C277.483 135.035 252.499 118.977 222.162 104.699C194.503 92.2069 169.519 75.253 146.314 52.055C124.898 31.5338 108.838 5.65417 97.2365 -25.5729C86.5309 -55.0249 80.2814 -85.3613 77.6061 -117.485C74.9297 -147.822 76.7161 -179.055 82.0689 -211.178C87.4216 -243.3 98.1269 -270.961 115.082 -297.73C131.14 -323.603 152.558 -345.911 180.218 -361.975C206.091 -378.033 229.296 -397.664 249.817 -422.648C269.447 -447.632 295.322 -461.91 327.445 -466.372C358.678 -470.835 389.014 -471.725 422.026 -469.938C454.149 -468.152 484.485 -461.909 513.042 -450.308C542.487 -439.602 570.148 -424.435 595.132 -405.693C619.226 -387.849 641.533 -366.431 662.054 -340.557C683.471 -313.787 698.64 -287.017 708.455 -259.357C719.161 -230.801 724.513 -200.464 725.41 -168.342C726.3 -138.005 724.52 -107.669 720.948 -74.6495C716.485 -45.2039 708.456 -13.9768 697.75 16.366C687.044 45.8116 668.304 70.7958 643.32 89.5372C619.226 108.279 592.456 126.123 563.906 140.401C533.569 156.459 505.013 167.171 477.353 173.414C444.34 181.431 414.004 185.004 383.667 185.004V185.002ZM392.587 -469.941C370.279 -469.941 348.863 -468.155 327.451 -465.478C294.438 -461.016 269.455 -446.737 249.823 -421.754C230.192 -396.77 206.099 -377.14 180.224 -361.082C152.565 -345.024 131.146 -322.716 115.088 -296.837C98.1332 -270.066 87.4288 -242.407 82.0751 -210.284C76.7223 -178.162 74.9359 -146.928 77.6123 -116.592C80.2887 -84.4693 86.5378 -54.1329 97.2427 -24.6857C108.844 6.54773 124.902 32.421 146.32 52.9422C169.518 76.1402 194.501 93.0938 222.169 105.586C252.505 119.864 277.489 135.922 299.796 155.553C323.89 176.074 350.66 185.889 383.674 185.889C413.119 185.889 444.346 182.323 477.366 174.287C505.025 168.038 533.582 157.332 563.918 141.274C592.475 126.996 619.239 109.151 643.332 90.4102C668.317 71.6688 687.056 46.6863 697.762 17.239C708.468 -13.0974 716.503 -44.3308 720.96 -73.7765C724.527 -106.79 726.313 -137.132 725.423 -167.469C724.533 -199.591 719.174 -229.928 708.468 -258.484C697.756 -287.028 682.582 -313.792 662.061 -340.562C641.539 -366.436 619.232 -387.854 595.139 -405.698C570.154 -424.44 542.495 -439.607 513.048 -450.313C484.491 -461.915 454.155 -468.157 422.032 -469.943H392.587V-469.941Z" fill="white"/>
<path d="M404.19 161.804C381.882 161.804 360.466 158.237 338.158 150.202C309.602 140.386 282.838 125.218 257.855 103.801C231.982 81.4938 206.991 63.6495 181.118 47.5851C154.348 30.6299 134.717 6.53644 123.122 -23.7999C111.52 -55.0334 104.381 -86.2588 101.706 -117.492C99.0291 -148.726 100.816 -180.848 106.168 -213.86C111.521 -245.093 125.799 -272.753 148.106 -295.06C170.413 -317.367 192.721 -339.675 214.137 -361.982C236.445 -385.18 260.538 -404.811 287.309 -419.978C315.865 -436.036 346.201 -444.962 376.538 -446.748C406.874 -449.425 438.108 -446.748 471.119 -437.823C501.456 -429.794 530.012 -417.302 558.562 -400.347C587.119 -382.502 611.206 -362.87 631.734 -339.674C653.15 -315.58 670.099 -288.81 682.597 -259.371C695.089 -229.034 701.339 -198.698 702.228 -166.575C702.228 -138.019 700.441 -106.792 697.765 -69.317C693.302 -37.1945 683.487 -6.85812 670.106 20.8029C655.827 49.3595 635.306 71.6668 607.647 89.5111C580.876 105.569 552.326 120.745 522.88 135.016C494.324 148.398 463.988 156.433 430.974 160.001C422.036 160.916 413.117 161.806 404.191 161.806L404.19 161.804ZM397.947 -448.525C390.808 -448.525 383.669 -448.525 376.53 -447.635C345.297 -445.848 315.857 -436.929 287.301 -420.864C260.53 -405.696 236.437 -386.065 214.13 -362.868C192.713 -340.561 170.406 -318.254 148.098 -295.946C124.9 -272.748 111.513 -246.869 106.161 -214.746C100.808 -181.733 99.0215 -149.61 101.698 -118.379C104.374 -87.1451 111.513 -55.9196 123.115 -24.6862C134.716 5.65018 154.348 29.7437 181.11 46.6988C206.984 62.7569 231.974 80.6075 257.848 102.915C282.832 124.331 309.601 139.5 338.151 149.316C369.384 160.021 399.72 163.594 430.946 159.131C463.959 155.565 493.405 147.53 522.852 134.147C552.298 119.869 580.848 104.701 607.618 88.6417C635.278 70.7974 655.799 48.4901 670.077 19.9336C683.459 -7.72592 693.275 -38.0623 697.737 -70.1864C700.413 -107.663 702.2 -138.895 702.2 -167.445C701.309 -199.567 695.06 -229.904 682.569 -260.24C670.077 -289.686 653.123 -316.456 631.705 -340.543C611.184 -363.741 587.09 -383.372 558.534 -401.216C529.977 -418.171 501.427 -430.662 471.091 -438.692C445.235 -444.954 421.142 -448.526 397.945 -448.526L397.947 -448.525Z" fill="white"/>
<path d="M405.099 136.816C383.683 136.816 363.161 133.25 343.529 126.111C316.759 116.295 291.776 101.126 270.358 81.4959C249.837 62.7546 225.744 44.9103 198.973 30.632C173.1 16.3539 154.359 -5.05649 143.653 -32.7239C132.947 -58.5973 125.808 -87.1538 123.131 -118.387C121.345 -150.51 122.241 -179.957 127.594 -206.726C132.057 -235.282 144.549 -261.156 165.96 -281.677C175.775 -290.602 185.59 -300.418 195.405 -310.233C206.111 -320.939 217.713 -331.65 228.419 -341.467C249.835 -361.097 272.142 -378.943 296.231 -395.897C320.325 -412.852 347.095 -421.77 377.431 -423.556C407.768 -425.342 437.215 -422.666 464.874 -414.631C492.534 -407.492 519.304 -395.889 545.178 -380.722C572.837 -363.767 595.144 -345.923 612.99 -325.401C632.621 -303.094 648.679 -278.11 660.282 -251.341C670.987 -226.357 677.237 -197.8 678.126 -166.575C679.016 -136.238 677.236 -107.682 671.877 -79.1318C668.31 -49.6861 660.275 -22.0251 647.784 4.74533C635.292 30.6187 616.55 52.0369 590.677 68.1013C565.693 84.1594 539.813 98.4377 513.049 110.93C487.176 123.422 459.508 131.451 429.172 135.023C421.161 136.816 413.133 136.816 405.097 136.816L405.099 136.816ZM394.394 -423.544C389.041 -423.544 382.792 -423.544 377.438 -422.654C347.102 -420.867 320.332 -411.948 296.238 -394.994C272.145 -378.039 249.837 -360.195 228.426 -340.564C217.72 -329.859 206.118 -319.148 195.412 -309.331C185.597 -299.515 175.782 -290.59 165.967 -280.774C144.55 -259.358 132.058 -234.374 127.601 -205.823C122.248 -178.164 121.352 -149.607 123.138 -117.485C125.815 -86.2513 132.954 -57.7011 143.66 -31.8214C154.365 -4.16196 173.105 17.2563 198.98 31.5345C225.751 45.8127 249.844 63.657 270.365 82.3984C291.782 102.029 316.766 117.198 343.536 127.013C370.307 136.829 398.857 139.505 429.2 135.938C459.536 132.372 487.196 124.337 513.077 111.845C539.847 99.3532 565.72 85.0746 590.705 69.0165C616.578 52.9585 635.319 31.5403 647.811 5.66058C660.303 -21.1098 668.333 -48.7693 671.905 -78.2165C677.258 -106.773 679.044 -135.323 678.154 -165.66C677.264 -196.893 671.015 -225.443 660.31 -250.426C648.708 -277.196 632.65 -302.179 613.018 -324.486C595.174 -345.007 572.867 -362.852 545.206 -379.807C519.332 -394.975 492.562 -406.577 464.902 -413.715C442.582 -420.867 419.38 -423.543 394.395 -423.543L394.394 -423.544Z" fill="white"/>
<path d="M400.622 111.83H385.454C353.331 109.154 327.458 96.6619 307.826 75.2445C284.628 52.0464 260.535 35.0929 233.766 24.3806C205.209 12.7789 183.799 -6.85284 170.41 -33.6153C157.028 -60.3856 148.993 -88.9358 146.316 -118.382C143.64 -147.827 145.426 -178.165 151.669 -208.501C157.022 -238.838 173.086 -262.931 198.07 -278.989C222.163 -295.047 244.471 -314.678 264.101 -338.773C282.842 -361.971 306.039 -378.925 334.589 -389.637C364.035 -399.452 393.482 -403.019 422.032 -398.562C450.589 -394.996 479.139 -386.961 507.695 -373.578C536.252 -361.086 560.339 -344.132 580.867 -323.611C602.283 -303.09 619.232 -278.997 633.51 -251.337C647.788 -222.781 654.031 -194.231 654.031 -165.674C654.922 -139.801 654.031 -111.244 650.465 -77.3354C647.789 -46.999 637.973 -19.3395 621.019 4.75555C604.064 30.6288 582.654 49.3702 555.884 63.6485C528.224 78.8167 500.563 90.4189 473.793 100.234C451.479 107.373 426.495 111.83 400.621 111.83L400.622 111.83ZM397.049 -401.238C376.528 -401.238 356.001 -397.672 335.48 -390.533C306.923 -379.827 284.616 -363.762 264.992 -339.669C245.361 -315.575 223.054 -295.945 198.96 -279.885C173.976 -263.827 157.912 -239.734 152.56 -209.397C146.311 -179.061 144.53 -148.725 147.207 -119.277C149.883 -89.8316 157.912 -61.2814 171.3 -34.511C184.682 -7.74066 206.1 11.8898 234.656 23.4848C261.427 34.1904 285.52 51.1443 308.717 74.3487C328.347 95.7653 354.222 108.257 386.344 110.934C418.467 112.721 447.914 109.148 474.683 99.3325C501.452 89.5172 529.113 77.9159 556.774 62.7469C583.544 48.4688 604.955 29.7337 621.91 3.85403C638.865 -20.2395 648.68 -47.899 651.355 -78.2369C654.922 -112.146 655.818 -140.696 654.922 -166.575C654.922 -196.021 647.783 -223.682 634.401 -252.239C620.123 -279.898 603.167 -303.992 581.757 -324.513C561.236 -345.034 537.142 -361.989 508.586 -374.48C480.029 -387.862 451.479 -395.896 422.923 -399.464C414.003 -400.341 405.078 -401.238 397.049 -401.238L397.049 -401.238Z" fill="white"/>
<path d="M402.395 207.311C382.765 207.311 362.243 205.525 339.039 202.848C307.806 198.385 281.932 184.107 261.411 160.02C240.89 135.926 215.01 118.082 185.563 108.267C155.227 97.5611 131.133 79.7102 113.289 54.726C93.6649 26.1758 80.2757 -0.594574 71.3576 -28.2541C62.4321 -55.0244 56.1894 -85.3608 53.5133 -118.374C50.8369 -147.82 52.6233 -178.158 57.9761 -209.39C63.3289 -238.835 72.2542 -267.385 84.7465 -297.728C97.2382 -327.174 117.76 -348.592 146.316 -361.973C175.762 -375.355 198.069 -395.882 214.129 -423.543C231.084 -452.1 254.28 -469.048 284.617 -477.084C314.062 -486.009 343.51 -491.362 375.632 -494.039C406.866 -496.715 437.202 -494.929 466.648 -487.79C498.77 -479.761 527.32 -469.946 553.2 -457.453C580.86 -444.962 606.741 -428.008 629.937 -407.487C655.811 -383.393 675.443 -361.981 691.507 -339.674C710.248 -313.801 723.63 -287.03 733.445 -258.474C743.26 -229.028 748.613 -198.69 749.503 -168.354C749.503 -139.797 747.717 -110.358 745.04 -77.3383C740.578 -44.3251 733.439 -14.8794 725.41 12.7817C716.484 43.118 701.316 68.9977 678.118 89.5189C653.134 112.717 629.041 130.568 604.058 144.839C577.288 160.008 549.628 173.396 521.078 184.991C494.308 195.697 464.862 202.835 431.849 205.512C422.027 206.415 412.212 207.311 402.397 207.311H402.395ZM402.395 -494.924C393.47 -494.924 384.551 -494.924 376.522 -494.033C344.399 -491.357 314.952 -486.004 285.506 -477.078C255.17 -469.049 231.966 -451.205 215.018 -423.538C198.96 -395.878 176.653 -375.357 147.206 -361.968C118.649 -348.586 98.128 -327.168 85.6359 -297.723C72.254 -267.386 64.2193 -238.83 58.8655 -209.384C53.5127 -178.151 51.7263 -147.814 54.4027 -118.369C57.0791 -85.3554 63.3282 -55.9098 72.247 -28.2487C81.1725 -0.589203 95.445 26.1812 114.185 53.8422C132.029 78.8264 156.123 96.6707 186.459 107.383C215.905 117.199 241.779 135.042 262.307 159.136C282.828 183.229 308.708 197.501 339.935 201.964C374.734 206.427 404.18 208.214 432.73 205.531C465.743 202.854 495.189 195.715 521.959 185.01C550.516 173.408 578.175 160.026 604.939 144.858C629.924 130.58 654.017 112.736 679 89.5377C702.198 68.121 717.365 43.1368 726.291 12.8004C734.32 -14.859 741.459 -44.3063 745.922 -77.3195C748.598 -110.333 750.384 -139.778 750.384 -168.335C749.494 -199.568 744.135 -229.008 734.326 -258.455C724.511 -287.012 711.128 -312.885 692.389 -339.655C676.331 -361.963 656.7 -383.379 630.819 -407.468C607.621 -427.989 581.741 -444.944 554.082 -457.435C528.208 -469.926 499.652 -479.742 467.529 -487.771C445.228 -492.246 423.81 -494.923 402.393 -494.923L402.395 -494.924Z" fill="white"/>
<path d="M55.3144 59.1888C58.8808 56.5124 61.5634 54.7261 65.1299 52.0497C64.2399 51.1596 64.2398 50.2634 63.3435 49.3733C59.7771 51.1596 56.2044 52.0497 52.638 53.836C35.6828 25.2794 23.1923 -5.05695 14.2726 -37.1795C21.4117 -39.8559 28.5507 -43.4285 36.5799 -46.1049C28.5507 -45.2149 20.5218 -44.3186 13.3818 -43.4285C4.45636 -75.5511 0 -107.674 0 -141.584C8.0292 -142.474 16.0581 -143.37 23.198 -144.26C15.1688 -145.15 7.13994 -146.047 0 -146.937C0 -179.95 4.46275 -212.968 12.4918 -245.092C20.5148 -244.19 28.5499 -243.3 35.6834 -242.409C28.5443 -245.086 21.4053 -248.659 13.3761 -251.335C22.3016 -283.458 34.7927 -313.794 50.8524 -342.35C54.4189 -340.564 57.9916 -339.674 61.558 -337.888C62.4481 -338.778 62.4481 -339.674 63.3443 -340.564C59.7779 -343.24 57.0953 -345.027 53.5288 -347.703C70.484 -377.149 91.8942 -399.456 115.988 -416.411C117.774 -417.301 119.554 -419.088 121.341 -419.978C124.907 -417.301 128.48 -414.625 132.942 -411.052C130.266 -414.619 127.589 -418.191 124.913 -421.758C147.22 -437.816 172.205 -457.446 199.864 -479.754C200.754 -480.644 201.65 -481.54 203.431 -482.43C206.107 -478.864 208.783 -475.291 212.356 -470.828C210.57 -475.291 208.79 -479.754 207.003 -484.21C234.663 -506.518 264.11 -521.687 294.446 -530.611C297.123 -523.472 300.695 -516.333 303.372 -508.304C302.482 -516.333 301.585 -524.362 300.695 -531.502C332.818 -539.531 364.94 -543.994 398.851 -543.994C399.741 -535.971 400.637 -527.942 401.527 -520.802C402.417 -528.831 403.314 -536.86 404.204 -544C437.217 -544 470.235 -539.537 502.359 -531.508C501.469 -523.479 500.573 -515.45 499.683 -508.31C502.359 -515.449 505.932 -522.588 508.608 -530.618C540.731 -521.692 571.067 -509.201 599.624 -493.141C596.947 -486.002 593.374 -478.863 590.698 -470.834C595.161 -477.083 600.514 -483.326 604.976 -489.575C633.533 -472.62 659.406 -452.99 683.5 -429.792C678.147 -424.439 673.684 -418.19 669.221 -411.947C675.47 -416.41 681.713 -421.763 687.963 -426.225C711.161 -403.027 730.791 -376.259 747.746 -347.702C741.497 -343.239 735.255 -337.887 729.005 -333.424C736.144 -336.1 743.283 -339.673 751.312 -342.349C767.37 -313.787 779.863 -283.45 788.782 -251.328C781.643 -248.651 774.504 -245.079 766.475 -242.402C774.504 -243.292 782.533 -244.189 789.673 -245.079C797.702 -212.956 802.165 -180.833 802.165 -146.923C794.136 -146.033 786.107 -145.137 778.967 -144.247C786.996 -143.357 795.025 -142.46 802.165 -141.57C802.165 -117.477 796.812 -84.4636 788.783 -44.312C781.644 -45.2021 773.615 -46.0984 766.476 -46.9885C773.615 -44.3121 780.754 -40.7393 787.892 -38.063C784.326 -21.1078 779.863 -3.26355 774.51 16.3669C770.944 30.645 766.481 44.0264 761.129 57.4155C753.989 54.7391 746.85 51.1665 739.712 48.4901C738.822 49.3801 738.822 50.2764 737.926 51.1664C744.175 55.6292 750.417 60.982 756.667 65.4446C742.389 96.678 722.758 122.551 697.774 144.859C691.525 139.506 684.392 135.043 678.144 129.69C677.254 130.581 676.357 131.477 676.357 131.477C681.71 137.726 686.173 143.969 691.525 151.107C679.924 160.923 666.541 169.849 652.263 176.981C636.205 185.906 620.14 193.936 605.862 201.074C600.509 194.825 596.047 188.582 590.694 181.444C593.37 188.583 596.943 195.722 599.619 203.751C562.143 222.492 531.807 234.984 508.604 241.227C505.928 234.088 502.355 226.949 499.678 218.92C500.568 226.949 501.465 234.978 502.355 242.118C470.232 250.147 438.11 254.61 404.199 254.61C403.309 246.581 402.413 238.552 401.523 231.412C400.633 239.441 399.737 247.47 398.847 254.61C365.833 254.61 332.815 250.147 300.691 242.118C301.581 234.089 302.478 226.06 303.368 218.92C300.691 226.059 297.119 233.198 294.442 241.227C261.429 232.302 234.659 218.92 212.351 201.965C210.565 200.178 207.888 198.398 206.102 196.612C207.888 191.259 210.565 185.906 212.351 181.444C208.785 185.906 206.102 190.369 202.536 193.936C182.015 177.878 157.03 159.136 129.364 137.719C127.578 136.829 125.798 135.043 124.012 134.153C127.578 129.69 130.261 125.228 133.827 121.661C129.364 125.228 124.902 128.8 120.445 131.477C92.7922 110.943 71.3804 85.9603 55.3159 59.1899L55.3144 59.1888ZM772.718 -168.346C771.828 -201.359 766.469 -233.482 755.763 -264.713C745.057 -295.947 730.778 -325.386 711.148 -352.157C691.518 -378.927 670.099 -403.02 645.117 -425.328C620.133 -447.635 593.364 -465.479 563.026 -478.869C532.689 -492.25 502.353 -503.853 470.231 -510.991C438.108 -518.13 405.985 -520.807 372.972 -517.24C339.959 -514.564 307.836 -508.315 274.817 -498.499C241.804 -489.573 216.821 -470.839 199.866 -442.283C182.911 -413.726 160.603 -394.102 131.158 -379.824C101.712 -365.546 79.4047 -342.348 65.1264 -312.011C50.8483 -281.675 40.1422 -249.552 34.79 -217.43C28.5409 -185.307 26.7608 -152.294 28.5409 -119.274C30.3273 -86.2611 36.5701 -54.1386 47.2823 -22.9067C57.9879 8.32672 72.2665 37.766 90.1108 65.4319C108.852 93.0913 133.835 112.723 165.959 124.325C198.083 135.926 224.852 153.77 248.05 178.755C270.357 203.739 298.914 218.906 331.927 224.26C364.94 229.614 397.958 231.399 430.971 228.723C463.985 226.046 495.216 219.797 526.45 207.306C556.786 195.704 586.234 181.433 614.788 164.478C643.345 147.522 669.218 127.892 694.203 105.585C718.296 83.2774 736.14 55.6179 745.956 24.3845C755.771 -6.84894 762.911 -38.9715 768.263 -71.9832C771.823 -103.204 773.609 -136.222 772.719 -168.346L772.718 -168.346Z" fill="white"/>
</g>
</svg>
